<svg width="34" height="34" viewBox="0 0 34 34" fill="none" xmlns="http://www.w3.org/2000/svg">
<path d="M17 3.98438C16.4499 3.98438 16.0039 4.43036 16.0039 4.98047C16.0039 5.53058 16.4499 5.97656 17 5.97656C20.296 5.97656 22.9776 8.65765 22.9776 11.9531C22.9776 12.5032 23.4235 12.9492 23.9737 12.9492C24.5238 12.9492 24.9697 12.5032 24.9697 11.9531C24.9697 7.55916 21.3946 3.98438 17 3.98438Z" fill="white"/>
<path d="M14.4318 0.267809C9.93141 1.20819 6.28239 4.82228 5.32222 9.35059C4.51147 13.1744 5.51055 17.0133 8.06327 19.8831C9.31111 21.2858 10.0267 23.1374 10.0267 24.9683V26.9605C10.0267 28.2859 10.8944 29.412 12.0915 29.802C12.4851 32.1279 14.5039 33.9995 16.9994 33.9995C19.4942 33.9995 21.5135 32.1285 21.9072 29.802C23.1043 29.412 23.972 28.2859 23.972 26.9604V24.9682C23.972 23.1337 24.69 21.3044 25.9936 19.8171C27.9017 17.6403 28.9525 14.8473 28.9525 11.9527C28.9525 4.41123 22.0496 -1.32368 14.4318 0.267809ZM16.9994 32.0073C15.7189 32.0073 14.5963 31.1263 14.1817 29.9421H19.817C19.4025 31.1263 18.2798 32.0073 16.9994 32.0073ZM21.9798 26.9605C21.9798 27.5097 21.533 27.9566 20.9837 27.9566H13.015C12.4657 27.9566 12.0189 27.5097 12.0189 26.9605V25.9644H21.9798V26.9605ZM24.4954 18.5041C23.1062 20.089 22.2515 22.0002 22.0346 23.9722H11.9643C11.7477 21.9991 10.8952 20.0692 9.5519 18.559C7.42438 16.1673 6.59304 12.9616 7.27111 9.76383C8.06261 6.03087 11.104 2.99843 14.8393 2.21796C21.2159 0.885387 26.9603 5.67407 26.9603 11.9527C26.9603 14.364 26.0849 16.6907 24.4954 18.5041Z" fill="white"/>
<path d="M2.98828 11.9531H0.996094C0.445984 11.9531 0 12.3991 0 12.9492C0 13.4993 0.445984 13.9453 0.996094 13.9453H2.98828C3.53839 13.9453 3.98438 13.4993 3.98438 12.9492C3.98438 12.3991 3.53839 11.9531 2.98828 11.9531Z" fill="white"/>
<path d="M3.40208 6.97192L1.9934 5.56324C1.60446 5.17423 0.973732 5.17423 0.584725 5.56324C0.195717 5.95225 0.195717 6.58291 0.584725 6.97192L1.9934 8.38059C2.38234 8.7696 3.01307 8.76967 3.40208 8.38059C3.79108 7.99158 3.79108 7.36092 3.40208 6.97192Z" fill="white"/>
<path d="M3.40208 17.5164C3.01307 17.1274 2.38234 17.1274 1.9934 17.5164L0.584725 18.925C0.195717 19.3141 0.195717 19.9447 0.584725 20.3337C0.973666 20.7227 1.60439 20.7228 1.9934 20.3337L3.40208 18.925C3.79108 18.536 3.79108 17.9054 3.40208 17.5164Z" fill="white"/>
<path d="M33.0039 11.9531H31.0117C30.4616 11.9531 30.0156 12.3991 30.0156 12.9492C30.0156 13.4993 30.4616 13.9453 31.0117 13.9453H33.0039C33.554 13.9453 34 13.4993 34 12.9492C34 12.3991 33.554 11.9531 33.0039 11.9531Z" fill="white"/>
<path d="M33.4177 5.56324C33.0288 5.17423 32.398 5.17423 32.009 5.56324L30.6004 6.97192C30.2113 7.36092 30.2113 7.99159 30.6004 8.38059C30.9893 8.76954 31.62 8.7696 32.009 8.38059L33.4177 6.97192C33.8067 6.58291 33.8067 5.95225 33.4177 5.56324Z" fill="white"/>
<path d="M33.4177 18.925L32.009 17.5164C31.6201 17.1274 30.9894 17.1274 30.6004 17.5164C30.2113 17.9054 30.2113 18.536 30.6004 18.925L32.009 20.3337C32.398 20.7227 33.0287 20.7227 33.4177 20.3337C33.8067 19.9447 33.8067 19.3141 33.4177 18.925Z" fill="white"/>
</svg>
