<svg width="75" height="73" viewBox="0 0 75 73" fill="none" xmlns="http://www.w3.org/2000/svg">
<g id="icon" opacity="0.05">
<path id="Vector" d="M36.6478 46.3876C36.4002 46.2464 36.0962 46.2476 35.8497 46.3908C35.6032 46.5339 35.4515 46.7975 35.4515 47.0825V51.2507C35.4515 52.5979 36.6129 54.5887 40.2601 56.4127C43.7267 58.1464 48.7135 59.3007 54.3765 59.3007C60.0394 59.3007 65.0262 58.1464 68.4928 56.4127C72.14 54.5887 73.3015 52.5979 73.3015 51.2507V47.0825C73.3015 46.7975 73.1498 46.5339 72.9033 46.3908C72.6568 46.2476 72.3527 46.2464 72.1051 46.3876C71.7474 46.5917 71.3848 46.785 71.0198 46.9675C66.6147 49.1701 60.7265 50.4507 54.3765 50.4507C48.0264 50.4507 42.1383 49.1701 37.7331 46.9675C37.3681 46.785 37.0056 46.5917 36.6478 46.3876ZM37.7331 26.534C42.1383 24.3314 48.0264 23.0507 54.3765 23.0507C60.7265 23.0507 66.6147 24.3314 71.0198 26.534C75.261 28.6546 78.9515 32.1043 78.9515 36.7507V51.2507C78.9515 55.8956 75.2606 59.3452 71.02 61.466C66.615 63.669 60.7269 64.9507 54.3765 64.9507C48.0261 64.9507 42.1379 63.669 37.7329 61.466C33.4923 59.3452 29.8015 55.8956 29.8015 51.2507V36.7507C29.8015 32.1043 33.4919 28.6546 37.7331 26.534ZM40.2599 31.5875C36.6133 33.4108 35.4515 35.4015 35.4515 36.7507C35.4515 38.0999 36.6133 40.0907 40.2599 41.914C43.7263 43.6472 48.7132 44.8007 54.3765 44.8007C60.0397 44.8007 65.0266 43.6472 68.4931 41.914C72.1396 40.0907 73.3015 38.0999 73.3015 36.7507C73.3015 35.4015 72.1396 33.4108 68.4931 31.5875C65.0266 29.8543 60.0397 28.7007 54.3765 28.7007C48.7132 28.7007 43.7263 29.8543 40.2599 31.5875Z" fill="#0F172A" stroke="#0F172A" stroke-width="1.6" stroke-linecap="round" stroke-linejoin="round"/>
<path id="Vector_2" d="M14.8708 34.695C14.6228 34.5659 14.3254 34.5757 14.0864 34.7207C13.8474 34.8658 13.7015 35.125 13.7015 35.4046V43.9993C13.7015 44.2707 13.7387 44.5929 13.9164 44.959C14.0853 45.3072 14.3578 45.647 14.7496 46.0091C15.657 46.8478 17.1235 47.7047 19.2812 48.671C20.7051 49.3088 21.3424 50.9801 20.7047 52.404C20.0669 53.8279 18.3956 54.4652 16.9717 53.8275C14.6791 52.8006 12.5199 51.6419 10.9147 50.1583C9.22099 48.5929 8.05146 46.5699 8.05146 43.9993V25.8743V7.74927C8.05146 4.73031 9.66854 2.14433 11.9418 0.176063C14.215 -1.79215 17.3379 -3.33431 20.9677 -4.38257C28.2077 -6.47345 37.0452 -6.47345 44.2853 -4.38257C47.9151 -3.33431 51.0379 -1.79215 53.3111 0.176062C55.5844 2.14432 57.2015 4.73031 57.2015 7.74927C57.2015 10.7682 55.5844 13.3542 53.3111 15.3225C51.0379 17.2907 47.9151 18.8328 44.2853 19.8811C37.0452 21.972 28.2077 21.972 20.9677 19.8811C18.7271 19.2341 16.6755 18.3975 14.8969 17.3861C14.6493 17.2453 14.3454 17.2468 14.0992 17.3901C13.853 17.5333 13.7015 17.7967 13.7015 18.0816L13.7015 25.8757V25.877L13.7015 25.8775C13.7016 26.149 13.7392 26.471 13.917 26.8367C14.0859 27.1844 14.3583 27.5238 14.7496 27.8855C15.657 28.7242 17.1235 29.5811 19.2812 30.5475C20.7051 31.1852 21.3424 32.8565 20.7047 34.2804C20.0669 35.7043 18.3956 36.3416 16.9717 35.7039C16.2569 35.3837 15.5521 35.0496 14.8708 34.695ZM42.7177 1.0456C36.5017 -0.749512 28.7512 -0.749512 22.5353 1.0456C19.437 1.94037 17.1224 3.16411 15.6401 4.44747C14.1525 5.73551 13.7015 6.88756 13.7015 7.74927C13.7015 8.61097 14.1525 9.76303 15.6401 11.0511C17.1224 12.3344 19.437 13.5582 22.5353 14.4529C28.7512 16.248 36.5017 16.248 42.7177 14.4529C45.816 13.5582 48.1306 12.3344 49.6128 11.0511C51.1004 9.76303 51.5515 8.61097 51.5515 7.74927C51.5515 6.88756 51.1004 5.73551 49.6128 4.44747C48.1306 3.16411 45.816 1.94037 42.7177 1.0456Z" fill="#0F172A" stroke="#0F172A" stroke-width="1.6" stroke-linecap="round" stroke-linejoin="round"/>
</g>
</svg>
