<svg width="75" height="73" viewBox="0 0 75 73" fill="none" xmlns="http://www.w3.org/2000/svg">
<g id="icon" opacity="0.05">
<path id="Vector" d="M36.6478 46.3876C36.4002 46.2464 36.0961 46.2476 35.8496 46.3908C35.6031 46.5339 35.4514 46.7975 35.4514 47.0825V51.2507C35.4514 52.5979 36.6129 54.5887 40.26 56.4127C43.7266 58.1464 48.7135 59.3007 54.3764 59.3007C60.0394 59.3007 65.0262 58.1464 68.4928 56.4127C72.1399 54.5887 73.3014 52.5979 73.3014 51.2507V47.0825C73.3014 46.7975 73.1497 46.5339 72.9032 46.3908C72.6567 46.2476 72.3526 46.2464 72.105 46.3876C71.7473 46.5917 71.3847 46.785 71.0198 46.9675C66.6146 49.1701 60.7265 50.4507 54.3764 50.4507C48.0263 50.4507 42.1382 49.1701 37.7331 46.9675C37.3681 46.785 37.0055 46.5917 36.6478 46.3876ZM37.7331 26.534C42.1382 24.3314 48.0263 23.0507 54.3764 23.0507C60.7265 23.0507 66.6146 24.3314 71.0197 26.534C75.2609 28.6546 78.9514 32.1043 78.9514 36.7507V51.2507C78.9514 55.8956 75.2605 59.3452 71.02 61.466C66.6149 63.669 60.7268 64.9507 54.3764 64.9507C48.026 64.9507 42.1379 63.669 37.7328 61.466C33.4923 59.3452 29.8014 55.8956 29.8014 51.2507V36.7507C29.8014 32.1043 33.4919 28.6546 37.7331 26.534ZM40.2598 31.5875C36.6133 33.4108 35.4514 35.4015 35.4514 36.7507C35.4514 38.0999 36.6133 40.0907 40.2598 41.914C43.7263 43.6472 48.7131 44.8007 54.3764 44.8007C60.0397 44.8007 65.0265 43.6472 68.493 41.914C72.1395 40.0907 73.3014 38.0999 73.3014 36.7507C73.3014 35.4015 72.1395 33.4108 68.493 31.5875C65.0265 29.8543 60.0397 28.7007 54.3764 28.7007C48.7131 28.7007 43.7263 29.8543 40.2598 31.5875Z" fill="#0F172A" stroke="#0F172A" stroke-width="1.6" stroke-linecap="round" stroke-linejoin="round"/>
<path id="Vector_2" d="M14.8708 34.695C14.6228 34.5659 14.3254 34.5757 14.0864 34.7207C13.8474 34.8658 13.7014 35.125 13.7014 35.4046V43.9993C13.7014 44.2707 13.7386 44.5929 13.9163 44.959C14.0852 45.3072 14.3577 45.647 14.7495 46.0091C15.657 46.8478 17.1235 47.7047 19.2811 48.671C20.7051 49.3088 21.3424 50.9801 20.7046 52.404C20.0669 53.8279 18.3956 54.4652 16.9717 53.8275C14.679 52.8006 12.5198 51.6419 10.9146 50.1583C9.22093 48.5929 8.0514 46.5699 8.0514 43.9993V25.8743V7.74927C8.0514 4.73031 9.66848 2.14433 11.9417 0.176063C14.215 -1.79215 17.3378 -3.33431 20.9676 -4.38257C28.2077 -6.47345 37.0451 -6.47345 44.2852 -4.38257C47.915 -3.33431 51.0379 -1.79215 53.3111 0.176062C55.5843 2.14432 57.2014 4.73031 57.2014 7.74927C57.2014 10.7682 55.5843 13.3542 53.3111 15.3225C51.0379 17.2907 47.915 18.8328 44.2852 19.8811C37.0451 21.972 28.2077 21.972 20.9676 19.8811C18.7271 19.2341 16.6754 18.3975 14.8969 17.3861C14.6492 17.2453 14.3454 17.2468 14.0991 17.3901C13.8529 17.5333 13.7014 17.7967 13.7014 18.0816L13.7014 25.8757V25.877L13.7014 25.8775C13.7016 26.149 13.7392 26.471 13.9169 26.8367C14.0859 27.1844 14.3582 27.5238 14.7495 27.8855C15.657 28.7242 17.1235 29.5811 19.2811 30.5475C20.7051 31.1852 21.3424 32.8565 20.7046 34.2804C20.0669 35.7043 18.3956 36.3416 16.9717 35.7039C16.2568 35.3837 15.552 35.0496 14.8708 34.695ZM42.7176 1.0456C36.5017 -0.749512 28.7511 -0.749512 22.5352 1.0456C19.4369 1.94037 17.1223 3.16411 15.6401 4.44747C14.1524 5.73551 13.7014 6.88756 13.7014 7.74927C13.7014 8.61097 14.1524 9.76303 15.6401 11.0511C17.1223 12.3344 19.4369 13.5582 22.5352 14.4529C28.7511 16.248 36.5017 16.248 42.7176 14.4529C45.8159 13.5582 48.1305 12.3344 49.6128 11.0511C51.1004 9.76303 51.5514 8.61097 51.5514 7.74927C51.5514 6.88756 51.1004 5.73551 49.6128 4.44747C48.1305 3.16411 45.8159 1.94037 42.7176 1.0456Z" fill="#0F172A" stroke="#0F172A" stroke-width="1.6" stroke-linecap="round" stroke-linejoin="round"/>
</g>
</svg>
