<svg width="87" height="87" viewBox="0 0 87 87" fill="none" xmlns="http://www.w3.org/2000/svg">
<g opacity="0.05">
<path d="M73.3015 61.0825C73.3015 60.7975 73.1498 60.5339 72.9033 60.3908C72.6568 60.2476 72.3527 60.2464 72.1051 60.3876C71.7474 60.5917 71.3848 60.785 71.0198 60.9675C66.6147 63.1701 60.7265 64.4507 54.3765 64.4507C48.0264 64.4507 42.1383 63.1701 37.7331 60.9675C37.3681 60.785 37.0056 60.5917 36.6478 60.3876C36.4002 60.2464 36.0962 60.2476 35.8497 60.3908C35.6032 60.5339 35.4515 60.7975 35.4515 61.0825V65.2507C35.4515 66.5979 36.6129 68.5887 40.2601 70.4127C43.7267 72.1464 48.7135 73.3007 54.3765 73.3007C60.0394 73.3007 65.0262 72.1464 68.4928 70.4127C72.14 68.5887 73.3015 66.5979 73.3015 65.2507V61.0825ZM37.7331 40.534C42.1383 38.3314 48.0264 37.0507 54.3765 37.0507C60.7265 37.0507 66.6147 38.3314 71.0198 40.534C75.261 42.6546 78.9515 46.1043 78.9515 50.7507V65.2507C78.9515 69.8956 75.2606 73.3452 71.02 75.466C66.615 77.669 60.7269 78.9507 54.3765 78.9507C48.0261 78.9507 42.1379 77.669 37.7329 75.466C33.4923 73.3452 29.8015 69.8956 29.8015 65.2507V50.7507C29.8015 46.1043 33.4919 42.6546 37.7331 40.534ZM40.2599 45.5875C36.6133 47.4108 35.4515 49.4015 35.4515 50.7507C35.4515 52.0999 36.6133 54.0907 40.2599 55.914C43.7263 57.6472 48.7132 58.8007 54.3765 58.8007C60.0397 58.8007 65.0266 57.6472 68.4931 55.914C72.1396 54.0907 73.3015 52.0999 73.3015 50.7507C73.3015 49.4015 72.1396 47.4108 68.4931 45.5875C65.0266 43.8543 60.0397 42.7007 54.3765 42.7007C48.7132 42.7007 43.7263 43.8543 40.2599 45.5875Z" fill="#0F172A" stroke="#0F172A" stroke-width="1.6" stroke-linecap="round" stroke-linejoin="round"/>
<path d="M13.7015 50.0154V57.9993C13.7015 58.2707 13.7387 58.5929 13.9164 58.959C14.0853 59.3072 14.3578 59.647 14.7496 60.0091C15.657 60.8478 17.1235 61.7047 19.2812 62.671C20.7051 63.3088 21.3424 64.9801 20.7047 66.404C20.0669 67.8279 18.3956 68.4652 16.9717 67.8275C14.6791 66.8007 12.5199 65.6419 10.9147 64.1583C9.22099 62.5929 8.05146 60.5699 8.05146 57.9993V39.8743V21.7493C8.05146 18.7303 9.66854 16.1443 11.9418 14.1761C14.215 12.2078 17.3379 10.6657 20.9677 9.61743C28.2077 7.52655 37.0452 7.52655 44.2853 9.61743C47.9151 10.6657 51.0379 12.2078 53.3111 14.1761C55.5844 16.1443 57.2015 18.7303 57.2015 21.7493C57.2015 24.7682 55.5844 27.3542 53.3111 29.3225C51.0379 31.2907 47.9151 32.8328 44.2853 33.8811C37.0452 35.972 28.2077 35.972 20.9677 33.8811C18.7322 33.2355 16.6847 32.4013 14.909 31.393C14.7907 31.3228 14.6527 31.2823 14.5053 31.2816C14.504 31.2816 14.5028 31.2816 14.5015 31.2816C14.3039 31.2816 14.123 31.3532 13.9834 31.472C13.9516 31.499 13.9221 31.5284 13.8951 31.5597C13.7744 31.6998 13.7015 31.8822 13.7015 32.0816L13.7015 39.8757V39.877C13.7015 39.8772 13.7015 39.8773 13.7015 39.8775C13.7016 40.149 13.7392 40.471 13.917 40.8367C14.0859 41.1844 14.3583 41.5238 14.7496 41.8855C15.657 42.7242 17.1235 43.5811 19.2812 44.5475C20.7051 45.1852 21.3424 46.8565 20.7047 48.2804C20.0669 49.7043 18.3956 50.3416 16.9717 49.7039C16.2569 49.3837 15.5521 49.0496 14.8708 48.695C14.7687 48.6418 14.6792 48.5972 14.6017 48.5609C14.5266 48.5257 14.4517 48.4931 14.3814 48.4677C14.3464 48.4551 14.3016 48.4403 14.2515 48.4282C14.2259 48.422 14.1934 48.4151 14.156 48.4099C14.12 48.405 14.0674 48.3998 14.0045 48.4021C13.9453 48.4043 13.8454 48.4139 13.7315 48.4589C13.6104 48.5066 13.4588 48.601 13.3477 48.7731C13.2363 48.9457 13.2127 49.1235 13.2196 49.2549C13.2261 49.3783 13.2593 49.4738 13.2822 49.5288C13.3065 49.5871 13.3333 49.6326 13.3526 49.6627C13.3728 49.6942 13.3924 49.7202 13.4081 49.74C13.4389 49.7787 13.469 49.8106 13.4916 49.8334C13.5371 49.8792 13.5856 49.9213 13.6272 49.9558C13.6509 49.9754 13.6758 49.9954 13.7015 50.0154ZM42.7177 15.0456C36.5017 13.2505 28.7512 13.2505 22.5353 15.0456C19.437 15.9404 17.1224 17.1641 15.6401 18.4475C14.1525 19.7355 13.7015 20.8876 13.7015 21.7493C13.7015 22.611 14.1525 23.763 15.6401 25.0511C17.1224 26.3344 19.437 27.5582 22.5353 28.4529C28.7512 30.248 36.5017 30.248 42.7177 28.4529C45.816 27.5582 48.1306 26.3344 49.6128 25.0511C51.1004 23.763 51.5515 22.611 51.5515 21.7493C51.5515 20.8876 51.1004 19.7355 49.6128 18.4475C48.1306 17.1641 45.816 15.9404 42.7177 15.0456Z" fill="#0F172A" stroke="#0F172A" stroke-width="1.6" stroke-linecap="round" stroke-linejoin="round"/>
</g>
</svg>
