<svg width="34" height="22" viewBox="0 0 34 22" fill="none" xmlns="http://www.w3.org/2000/svg">
<path d="M33.7379 7.71872L31.9774 16.4363C30.9803 21.3757 28.31 21.7923 24.9358 21.8217C23.4395 21.8217 22.7937 21.7628 21.7081 21.3757C19.2729 20.394 18.3933 22.6253 15.1366 21.8217C13.816 21.4949 12.2021 20.5132 10.7058 21.9704C11.8495 20.6016 13.4937 20.7798 14.9306 20.9887C17.865 21.4052 18.5399 18.1319 15.723 18.4293C13.6984 18.6369 12.2603 20.7208 9.50274 19.3521C7.83078 18.519 6.74522 16.8824 4.60314 17.2092C3.69324 17.3578 1.55243 18.5177 0.260864 17.8038C1.63963 18.4293 3.28251 17.2386 4.33902 16.8811C6.48109 16.1672 7.59573 17.0887 8.88729 17.8038C11.1469 19.0534 12.9945 17.982 13.3762 17.1489C13.9929 15.7802 12.9945 14.2627 10.5883 14.7382C9.70873 14.9163 7.00934 15.7802 5.83531 14.3511C7.03841 15.511 9.18048 14.5895 10.2067 14.2319C13.0526 13.2502 13.9032 14.1128 15.723 15.2726C18.3933 16.9682 19.5661 15.4213 19.9186 13.9641C20.3875 12.0301 19.9186 11.8814 18.3933 12.0006C17.3659 12.0903 16.3687 11.9712 15.1947 10.8408C13.5518 9.2336 11.9961 10.0667 11.2341 10.751C12.2615 9.70908 13.5518 9.08493 15.7824 10.2153C19.7721 12.239 21.7094 6.34738 18.3933 6.16923C15.4298 6.02056 14.784 7.53801 11.6448 8.2224C10.4126 8.49026 8.18211 8.51973 6.56955 7.03176C8.71163 8.69788 13.083 7.80587 13.2005 5.57327C13.318 3.16253 8.50563 1.67584 3.95863 5.72194C6.48235 3.25224 9.18048 2.32947 11.5867 2.5089C13.8463 2.68705 14.6968 3.78796 16.5747 4.23525C18.8634 4.77097 21.9141 4.11606 22.5018 2.74728C23.03 1.52717 21.5047 0.813307 19.1566 1.79503C17.3962 2.53838 16.2815 2.74728 14.1395 1.52717C16.8389 2.89595 18.2176 1.40798 19.6849 0.604401C22.6193 -1.00276 24.2622 1.11064 27.1663 1.05041C27.9296 0.991453 28.7511 0.991453 29.6016 0.991453H33.0643L32.2138 5.12727H30.4533L30.9222 2.77676C27.4014 2.77676 26.4043 3.25224 25.7585 6.40633L24.8789 10.6319L23.7933 15.9878C23.03 19.766 23.2941 20.0339 24.937 20.0339C26.2577 20.0339 27.1082 19.8263 27.8121 16.4043L29.2199 9.50146H27.548V7.71615H33.7391L33.7379 7.71872Z" fill="white"/>
</svg>
