<svg width="33" height="42" viewBox="0 0 33 42" fill="none" xmlns="http://www.w3.org/2000/svg">
<path d="M14.4107 21.7433C14.6621 22.0554 14.9802 22.3072 15.3417 22.4803C15.7031 22.6533 16.0988 22.7432 16.4995 22.7432C16.9003 22.7433 17.296 22.6536 17.6575 22.4806C18.019 22.3077 18.3372 22.056 18.5887 21.744L28.8525 9.01058C29.2643 8.50006 29.5054 7.87314 29.5418 7.21826C29.5782 6.56338 29.4081 5.91359 29.0555 5.36055L26.1816 0.848906C26.0753 0.682165 25.9287 0.544894 25.7554 0.449775C25.5821 0.354656 25.3876 0.304757 25.1898 0.304688H7.80977C7.61204 0.304757 7.41753 0.354656 7.24419 0.449775C7.07085 0.544894 6.92427 0.682165 6.81801 0.848906L3.9442 5.36041C3.59156 5.91359 3.42149 6.56351 3.45798 7.21851C3.49447 7.87352 3.73567 8.50053 4.14758 9.01111L14.4107 21.7433ZM9.64627 8.27037L13.0678 16.3303L6.57076 8.27037H9.64627ZM17.7429 6.08678H12.079L13.6719 2.65652H18.5625C18.578 2.6887 18.5898 2.72183 18.6087 2.753L21.3587 7.268L16.4756 19.6161L12.0185 8.27037H17.7428C18.0324 8.27037 18.3101 8.15534 18.5149 7.95059C18.7196 7.74584 18.8346 7.46814 18.8346 7.17857C18.8346 6.88901 18.7196 6.61131 18.5149 6.40656C18.3101 6.20181 18.0324 6.08678 17.7428 6.08678H17.7429ZM23.3052 8.27037H26.4287L19.8295 16.4574L23.3052 8.27037ZM26.7298 6.08678H23.1963L21.1071 2.65652H24.545L26.7298 6.08678ZM8.45483 2.65652H11.2649L9.67207 6.08678H6.26989L8.45483 2.65652Z" fill="#A0A0A0"/>
<path d="M32.1191 26.5947C31.8527 26.1892 31.4894 25.8563 31.0621 25.6262C30.6349 25.3961 30.1571 25.276 29.6718 25.2767H28.0689C27.272 25.275 26.4927 25.5108 25.8304 25.9539C25.168 26.3971 24.6528 27.0275 24.3503 27.7647C24.1695 28.2033 23.888 28.5932 23.5286 28.9027C23.1691 29.2122 22.7418 29.4328 22.2813 29.5465L22.2831 29.098C22.285 28.5969 22.188 28.1003 21.9976 27.6368C21.8072 27.1733 21.5271 26.7519 21.1734 26.3969C20.8198 26.0418 20.3995 25.7601 19.9367 25.5679C19.4739 25.3757 18.9777 25.2767 18.4766 25.2767H14.9932C14.2842 25.2749 13.5819 25.4133 12.9266 25.684C12.2714 25.9547 11.6761 26.3524 11.1752 26.8541L11.0866 26.942C10.3934 27.6343 9.46868 28.0459 8.49031 28.0976V27.2799C8.48956 26.6133 8.22443 25.9742 7.75307 25.5029C7.28171 25.0315 6.64262 24.7664 5.97602 24.7656H1.21484C0.903007 24.7656 0.603942 24.8895 0.383441 25.11C0.162939 25.3305 0.0390625 25.6296 0.0390625 25.9414V39.9174C0.0390625 40.2292 0.162939 40.5283 0.383441 40.7488C0.603942 40.9693 0.903007 41.0932 1.21484 41.0932H5.97636C6.64296 41.0924 7.28204 40.8273 7.7534 40.356C8.22476 39.8846 8.4899 39.2455 8.49065 38.5789V38.4392H21.7565C23.7481 38.4405 25.6963 37.8572 27.3594 36.7617C29.0226 35.6661 30.3276 34.1065 31.1126 32.2762L32.3642 29.3643C32.5564 28.9186 32.6347 28.432 32.5919 27.9485C32.5491 27.465 32.3867 26.9998 32.1191 26.5947ZM6.13875 38.5789C6.13875 38.6221 6.1216 38.6635 6.09109 38.694C6.06057 38.7245 6.01918 38.7416 5.97602 38.7416H2.39062V27.1171H5.97636C6.01951 27.1171 6.0609 27.1342 6.09142 27.1647C6.12194 27.1952 6.13908 27.2366 6.13908 27.2798L6.13875 38.5789ZM30.2036 28.4359L28.952 31.3484C28.3482 32.7559 27.3445 33.9553 26.0655 34.7978C24.7864 35.6402 23.2881 36.0887 21.7565 36.0876H8.49031V30.4495C10.0914 30.3985 11.6131 29.74 12.7463 28.6077L12.8352 28.5192C13.1183 28.2357 13.4548 28.011 13.8252 27.8581C14.1955 27.7052 14.5925 27.6271 14.9932 27.6283H18.4766C18.6681 27.6282 18.8578 27.666 19.0348 27.7394C19.2117 27.8128 19.3724 27.9205 19.5075 28.0562C19.6427 28.1919 19.7498 28.353 19.8225 28.5302C19.8953 28.7074 19.9323 28.8972 19.9315 29.0888L19.9293 29.6446H15.3256C15.0137 29.6446 14.7147 29.7685 14.4942 29.989C14.2737 30.2095 14.1498 30.5085 14.1498 30.8204C14.1498 31.1322 14.2737 31.4313 14.4942 31.6518C14.7147 31.8723 15.0137 31.9961 15.3256 31.9961H21.542C22.6098 31.9983 23.6539 31.6822 24.5413 31.0883C25.4286 30.4944 26.1189 29.6496 26.524 28.6617C26.6496 28.3554 26.8637 28.0935 27.1389 27.9095C27.4141 27.7254 27.7378 27.6275 28.0689 27.6283H29.6718C29.7677 27.6283 29.862 27.6521 29.9464 27.6975C30.0309 27.743 30.1027 27.8087 30.1554 27.8888C30.2081 27.9689 30.2401 28.0608 30.2485 28.1563C30.2569 28.2518 30.2415 28.3479 30.2036 28.436V28.4359Z" fill="#A0A0A0"/>
</svg>
