<svg width="43" height="43" viewBox="0 0 43 43" fill="none" xmlns="http://www.w3.org/2000/svg">
<path d="M22.672 24.4274H20.308C19.851 24.4245 19.4136 24.241 19.0914 23.9168C18.7692 23.5926 18.5884 23.1541 18.5884 22.697C18.5884 22.2399 18.7692 21.8014 19.0914 21.4772C19.4136 21.153 19.851 20.9695 20.308 20.9666H24.9042C25.216 20.9666 25.5151 20.8427 25.7356 20.6222C25.9561 20.4017 26.08 20.1027 26.08 19.7908C26.08 19.479 25.9561 19.1799 25.7356 18.9594C25.5151 18.7389 25.216 18.615 24.9042 18.615H22.5645V16.2917C22.5645 15.9799 22.4406 15.6808 22.2201 15.4603C21.9996 15.2398 21.7005 15.1159 21.3887 15.1159C21.0768 15.1159 20.7778 15.2398 20.5573 15.4603C20.3368 15.6808 20.2129 15.9799 20.2129 16.2917V18.6199C19.1385 18.6437 18.1169 19.0905 17.37 19.8631C16.6231 20.6358 16.2112 21.6719 16.2237 22.7465C16.2362 23.821 16.6722 24.8473 17.4369 25.6023C18.2017 26.3573 19.2334 26.7801 20.308 26.7789H22.672C23.0754 26.7816 23.4613 26.9437 23.7456 27.2299C24.0299 27.516 24.1894 27.903 24.1894 28.3064C24.1894 28.7098 24.0299 29.0968 23.7456 29.3829C23.4613 29.6691 23.0754 29.8312 22.672 29.8339H17.402C17.0902 29.8339 16.7911 29.9578 16.5706 30.1783C16.3501 30.3988 16.2263 30.6978 16.2263 31.0097C16.2263 31.3215 16.3501 31.6206 16.5706 31.8411C16.7911 32.0616 17.0902 32.1854 17.402 32.1854H20.2129V34.2686C20.2129 34.5804 20.3368 34.8795 20.5573 35.1C20.7778 35.3205 21.0768 35.4444 21.3887 35.4444C21.7005 35.4444 21.9996 35.3205 22.2201 35.1C22.4406 34.8795 22.5645 34.5804 22.5645 34.2686V32.1854H22.672C23.6979 32.1812 24.6805 31.7706 25.4044 31.0436C26.1284 30.3166 26.5349 29.3324 26.5349 28.3064C26.5349 27.2804 26.1284 26.2962 25.4044 25.5692C24.6805 24.8422 23.6979 24.4316 22.672 24.4274H22.672Z" fill="#222222"/>
<path d="M39.3203 32.9151L37.2831 28.6493C36.867 27.7797 36.66 26.8249 36.6788 25.861C36.8654 17.2707 33.2675 11.6777 27.0144 10.6756C27.844 10.0187 29.5585 9.10185 32.5071 9.35971C32.6622 9.37566 32.8189 9.36061 32.9682 9.31542C33.1174 9.27023 33.2561 9.19581 33.3763 9.09649C33.4965 8.99717 33.5958 8.87494 33.6683 8.73691C33.7408 8.59888 33.7851 8.4478 33.7987 8.29247C33.8123 8.13714 33.7948 7.98067 33.7474 7.83215C33.6999 7.68363 33.6234 7.54603 33.5222 7.42737C33.4211 7.30871 33.2973 7.21135 33.1582 7.14096C33.0191 7.07057 32.8673 7.02855 32.7118 7.01735C30.897 6.81339 29.0602 7.07201 27.3722 7.76911L28.2147 5.11588C28.3466 4.70067 28.3788 4.26019 28.3085 3.83023C28.2382 3.40027 28.0675 2.99294 27.8103 2.64133C27.553 2.28972 27.2165 2.00374 26.828 1.80662C26.4394 1.60949 26.0099 1.50679 25.5742 1.50684H16.8936C16.4529 1.50688 16.0185 1.61207 15.6266 1.81369C15.2346 2.01531 14.8965 2.30753 14.6402 2.66607C14.3839 3.02462 14.2168 3.43915 14.1528 3.87523C14.0889 4.31131 14.1299 4.75635 14.2725 5.17339L15.1155 7.64032C13.512 7.04637 11.7924 6.83315 10.0924 7.01749C9.93682 7.02866 9.78506 7.07065 9.64591 7.14103C9.50675 7.21141 9.38299 7.30876 9.28182 7.42742C9.18065 7.54609 9.1041 7.68369 9.05662 7.83222C9.00913 7.98075 8.99167 8.13724 9.00524 8.29259C9.01881 8.44793 9.06315 8.59903 9.13567 8.73707C9.2082 8.87512 9.30745 8.99736 9.42767 9.09668C9.54788 9.196 9.68665 9.27042 9.8359 9.3156C9.98515 9.36078 10.1419 9.37582 10.297 9.35985C13.2719 9.09708 14.9974 10.0403 15.8183 10.699C9.66894 11.774 6.13991 17.3482 6.32468 25.8612C6.34349 26.8249 6.13679 27.7797 5.72107 28.6494L3.68374 32.9151C3.27599 33.7684 3.09108 34.7111 3.14626 35.6552C3.20144 36.5992 3.49491 37.514 3.99929 38.3139C4.50366 39.1139 5.2025 39.773 6.03057 40.2298C6.85863 40.6866 7.78893 40.9261 8.73463 40.9261H34.2694C35.2151 40.9261 36.1454 40.6866 36.9735 40.2298C37.8016 39.773 38.5004 39.1139 39.0048 38.3139C39.5092 37.514 39.8026 36.5992 39.8578 35.6552C39.913 34.7111 39.7281 33.7684 39.3203 32.9151V32.9151ZM16.5534 4.03349C16.5917 3.97895 16.6427 3.93456 16.7021 3.90412C16.7614 3.87369 16.8272 3.85814 16.8939 3.8588H25.5745C25.6403 3.85881 25.7053 3.87435 25.764 3.90416C25.8227 3.93397 25.8735 3.9772 25.9124 4.03035C25.9513 4.0835 25.9771 4.14507 25.9877 4.21006C25.9983 4.27504 25.9934 4.34161 25.9735 4.40436L24.0226 10.5481H18.5945L16.4983 4.41323C16.4758 4.35024 16.4691 4.28271 16.4787 4.21653C16.4883 4.15035 16.514 4.08751 16.5534 4.03349ZM37.0155 37.06C36.7241 37.5249 36.3191 37.9079 35.8387 38.1729C35.3583 38.438 34.8182 38.5762 34.2696 38.5747H8.73429C8.18588 38.5747 7.6464 38.4357 7.16621 38.1708C6.68602 37.9059 6.28077 37.5237 5.98829 37.0598C5.6958 36.5959 5.52562 36.0654 5.49363 35.5179C5.46163 34.9705 5.56887 34.4238 5.80532 33.929L7.84325 29.6632C8.41684 28.4612 8.7021 27.1418 8.67638 25.8102C8.59636 22.1588 9.25513 13.6039 17.0492 12.8996H25.9544C33.7481 13.6039 34.4072 22.1588 34.3272 25.8102C34.3013 27.1419 34.5869 28.4613 35.1611 29.6632L37.1983 33.9288C37.4363 34.4233 37.5444 34.9702 37.5124 35.5181C37.4805 36.0659 37.3094 36.5966 37.0155 37.06V37.06Z" fill="#222222"/>
</svg>
