<svg width="44" height="44" viewBox="0 0 44 44" fill="none" xmlns="http://www.w3.org/2000/svg">
<path d="M26.2538 29.095C26.8984 28.2819 27.3008 27.3034 27.4147 26.272C27.5286 25.2406 27.3495 24.1979 26.8978 23.2637C26.4461 22.3294 25.7402 21.5414 24.8611 20.99C23.982 20.4387 22.9653 20.1463 21.9276 20.1465C20.8899 20.1466 19.8732 20.4393 18.9943 20.991C18.1154 21.5426 17.4097 22.3308 16.9584 23.2652C16.507 24.1996 16.3282 25.2423 16.4424 26.2737C16.5567 27.3051 16.9593 28.2834 17.6043 29.0964C15.9619 29.9448 14.6527 31.3212 13.8875 33.0039C13.1362 34.5776 12.9375 37.2685 12.9375 38.4716V39.3169C12.9383 40.035 13.2239 40.7235 13.7316 41.2313C14.2393 41.7391 14.9277 42.0248 15.6458 42.0257H28.2129C28.931 42.0248 29.6195 41.7392 30.1273 41.2314C30.6351 40.7236 30.9208 40.0351 30.9216 39.3169V38.4683C30.9216 37.2631 30.7222 34.5675 29.9669 32.9905C29.2008 31.3125 27.8931 29.9407 26.2538 29.095V29.095ZM28.5156 39.3169C28.5156 39.3971 28.4838 39.4741 28.427 39.5308C28.3703 39.5875 28.2934 39.6194 28.2131 39.6194H15.6458C15.5657 39.6193 15.4888 39.5874 15.4322 39.5307C15.3756 39.474 15.3438 39.3971 15.3438 39.3169V38.4716C15.321 36.9639 15.5632 35.4638 16.0594 34.0398C16.3857 33.3158 16.855 32.6652 17.4392 32.1272C18.0234 31.5893 18.7103 31.1751 19.4588 30.9095C19.713 30.8389 19.9369 30.6866 20.0959 30.4761C20.255 30.2655 20.3403 30.0085 20.3388 29.7447L20.3347 28.9451C20.3338 28.7722 20.2956 28.6015 20.2228 28.4447C20.1501 28.2878 20.0444 28.1484 19.9131 28.036C19.4284 27.6234 19.0818 27.0722 18.9202 26.4565C18.7585 25.8408 18.7896 25.1904 19.0091 24.593C19.2287 23.9955 19.6262 23.4797 20.148 23.1152C20.6698 22.7507 21.2909 22.555 21.9274 22.5544C22.5639 22.5539 23.1853 22.7486 23.7077 23.1122C24.2302 23.4759 24.6285 23.991 24.8491 24.5881C25.0696 25.1852 25.1017 25.8355 24.9411 26.4515C24.7805 27.0674 24.4349 27.6193 23.9508 28.0326C23.9213 28.0575 23.8924 28.0837 23.8656 28.1112C23.8072 28.17 23.7552 28.2348 23.7105 28.3045C23.5826 28.5022 23.5158 28.7332 23.5185 28.9686L23.5265 29.7615C23.529 30.0091 23.6079 30.2499 23.7523 30.451C23.8967 30.6522 24.0997 30.8038 24.3335 30.8853C25.095 31.145 25.7952 31.558 26.3909 32.0987C26.9867 32.6395 27.4653 33.2966 27.7972 34.0295C28.2951 35.4554 28.5383 36.9578 28.5156 38.468L28.5156 39.3169Z" fill="black"/>
<path d="M42.1997 30.9688C41.4325 29.2914 40.1246 27.9199 38.4855 27.0739C39.1299 26.2609 39.5321 25.2827 39.646 24.2516C39.7599 23.2204 39.5809 22.1781 39.1294 21.244C38.678 20.31 37.9724 19.5221 37.0937 18.9707C36.2149 18.4193 35.1986 18.1268 34.1612 18.1266C33.1238 18.1265 32.1073 18.4187 31.2284 18.9698C30.3495 19.521 29.6437 20.3086 29.192 21.2425C28.7402 22.1764 28.5609 23.2187 28.6745 24.2499C28.788 25.2811 29.1899 26.2594 29.8341 27.0726L29.3339 27.3082C29.1909 27.3755 29.0627 27.4704 28.9564 27.5873C28.8502 27.7043 28.768 27.841 28.7145 27.9897C28.6611 28.1384 28.6375 28.2961 28.645 28.4539C28.6526 28.6118 28.6911 28.7665 28.7585 28.9095C28.8258 29.0524 28.9207 29.1807 29.0376 29.2869C29.1545 29.3932 29.2912 29.4754 29.4399 29.5288C29.5886 29.5822 29.7464 29.6059 29.9042 29.5983C30.062 29.5908 30.2168 29.5522 30.3598 29.4849L31.0633 29.1532C31.2658 29.0548 31.4733 28.9675 31.6851 28.8914C31.7969 28.8607 31.9037 28.8139 32.002 28.7523C32.1767 28.6441 32.3208 28.4928 32.4203 28.3129C32.5199 28.1331 32.5716 27.9307 32.5706 27.7252L32.5673 26.9248C32.5664 26.7518 32.5283 26.5809 32.4554 26.4239C32.3826 26.2669 32.2767 26.1275 32.145 26.0151C31.7176 25.6519 31.3964 25.18 31.2152 24.6492C31.034 24.1185 30.9996 23.5486 31.1157 22.9999C31.2183 22.5159 31.4347 22.0633 31.7471 21.6796C32.0594 21.296 32.4588 20.9923 32.9119 20.7938C33.3651 20.5953 33.8591 20.5077 34.3529 20.5382C34.8467 20.5687 35.3261 20.7165 35.7514 20.9693C36.1767 21.2221 36.5356 21.5726 36.7983 21.9918C37.0611 22.411 37.2201 22.8868 37.2623 23.3797C37.3044 23.8727 37.2285 24.3686 37.0407 24.8263C36.853 25.284 36.5588 25.6904 36.1826 26.0118C36.151 26.0377 36.121 26.0655 36.0927 26.095C36.0485 26.14 36.0081 26.1885 35.9718 26.24C35.825 26.4466 35.7475 26.6943 35.7502 26.9477L35.7583 27.7406C35.7608 27.9882 35.8396 28.229 35.9841 28.4301C36.1285 28.6313 36.3315 28.783 36.5653 28.8645C37.3268 29.1243 38.027 29.5373 38.6228 30.078C39.2186 30.6188 39.6974 31.2758 40.0297 32.0086C40.5271 33.4346 40.7701 34.937 40.7474 36.4471V37.2958C40.7473 37.3759 40.7154 37.4528 40.6587 37.5094C40.6019 37.566 40.5251 37.5979 40.4449 37.5979H34.1612C33.8421 37.5979 33.536 37.7246 33.3104 37.9502C33.0848 38.1759 32.958 38.4819 32.958 38.801C32.958 39.1201 33.0848 39.4261 33.3104 39.6517C33.536 39.8774 33.8421 40.0041 34.1612 40.0041H40.4449C41.163 40.0033 41.8515 39.7177 42.3593 39.21C42.8671 38.7023 43.1528 38.0139 43.1537 37.2958V36.4473C43.1537 35.2414 42.9543 32.5452 42.1997 30.9688Z" fill="black"/>
<path d="M15.3817 28.9989C15.5161 28.7095 15.5301 28.3786 15.4207 28.0789C15.3113 27.7792 15.0874 27.5351 14.7982 27.4003C14.6304 27.3224 14.3739 27.2036 14.1026 27.0801C14.6867 26.3454 15.0737 25.474 15.2271 24.5481C15.3805 23.6222 15.2952 22.6725 14.9793 21.7887C14.6634 20.905 14.1273 20.1164 13.4217 19.4975C12.7162 18.8787 11.8644 18.45 10.947 18.2521C9.83523 18.0116 8.67631 18.1206 7.62886 18.5641C6.58141 19.0077 5.69661 19.764 5.09557 20.7298C4.49453 21.6955 4.20661 22.8234 4.27122 23.959C4.33583 25.0947 4.74981 26.1826 5.4565 27.0739C3.81722 27.9196 2.5095 29.2915 1.74311 30.9693C0.988437 32.545 0.789062 35.2413 0.789062 36.4471V37.2958C0.789954 38.0138 1.07558 38.7022 1.5833 39.2099C2.09102 39.7176 2.77938 40.0032 3.4974 40.0041H9.78115C10.1002 40.0041 10.4063 39.8774 10.6319 39.6517C10.8575 39.4261 10.9843 39.1201 10.9843 38.801C10.9843 38.4819 10.8575 38.1759 10.6319 37.9503C10.4063 37.7246 10.1002 37.5979 9.78115 37.5979H3.4974C3.41731 37.5978 3.34054 37.5659 3.28391 37.5093C3.22728 37.4527 3.19542 37.3759 3.19531 37.2958V36.4474C3.17256 34.9372 3.41539 33.4349 3.91272 32.0088C4.24477 31.276 4.72341 30.619 5.31912 30.0782C5.91482 29.5375 6.61498 29.1245 7.37641 28.8647C7.61023 28.7831 7.8132 28.6315 7.95766 28.4303C8.10212 28.2292 8.18105 27.9884 8.18368 27.7408L8.19179 26.9614C8.19543 26.7828 8.15931 26.6056 8.08604 26.4427C8.01277 26.2798 7.90418 26.1353 7.76815 26.0195C7.28159 25.6075 6.93322 25.0561 6.77011 24.4398C6.607 23.8235 6.63702 23.1719 6.85611 22.5732C7.0752 21.9745 7.4728 21.4574 7.99518 21.092C8.51756 20.7265 9.13955 20.5301 9.77709 20.5295C10.4146 20.5289 11.037 20.724 11.5601 21.0884C12.0832 21.4529 12.4818 21.9691 12.7021 22.5674C12.9224 23.1657 12.9537 23.8172 12.7918 24.4338C12.6299 25.0505 12.2826 25.6026 11.7969 26.0155C11.6656 26.1279 11.5599 26.2673 11.4872 26.4241C11.4144 26.581 11.3763 26.7516 11.3753 26.9245L11.3713 27.7248C11.3707 27.9814 11.452 28.2315 11.6034 28.4386C11.7549 28.6457 11.9685 28.799 12.2132 28.8763C12.4286 28.9615 13.1733 29.2986 13.7829 29.5826C13.9262 29.6493 14.0812 29.6871 14.2391 29.6939C14.397 29.7006 14.5547 29.6762 14.7032 29.622C14.8517 29.5678 14.988 29.4849 15.1044 29.378C15.2208 29.2711 15.315 29.1422 15.3817 28.9989Z" fill="black"/>
<path d="M16.1295 10.5726L17.8551 11.7952L17.191 13.8393C17.0363 14.3153 17.0363 14.828 17.191 15.304C17.3456 15.78 17.647 16.1948 18.0519 16.489C18.4567 16.7832 18.9443 16.9417 19.4448 16.9417C19.9453 16.9418 20.4329 16.7834 20.8379 16.4893L22.5345 15.2258L24.2734 16.4893C24.6762 16.7889 25.1649 16.9507 25.6669 16.9505C26.169 16.9504 26.6576 16.7884 27.0603 16.4886C27.4694 16.1981 27.774 15.7836 27.9289 15.3064C28.0838 14.8291 28.0808 14.3147 27.9204 13.8393L27.2429 11.8353L28.9818 10.5724C29.3867 10.2783 29.6882 9.86346 29.8429 9.38747C29.9977 8.91147 29.9978 8.3987 29.8432 7.92266C29.6886 7.44661 29.3873 7.03172 28.9824 6.73744C28.5775 6.44315 28.0899 6.28459 27.5894 6.28447L25.474 6.30929L24.8098 4.26625C24.6603 3.78723 24.3603 3.36917 23.9545 3.07408C23.5486 2.77899 23.0584 2.62259 22.5566 2.62807H22.556C22.0541 2.62253 21.5639 2.77881 21.1578 3.07375C20.7517 3.36869 20.4514 3.7866 20.3015 4.26556L19.6715 6.28447H17.5223C17.0218 6.2846 16.5342 6.44315 16.1293 6.7374C15.7244 7.03166 15.423 7.44653 15.2683 7.92257C15.1137 8.3986 15.1137 8.91137 15.2683 9.38742C15.4229 9.86346 15.7243 10.2783 16.1292 10.5726H16.1295ZM19.6715 8.69072C20.1721 8.69146 20.6601 8.5333 21.0651 8.23903C21.4701 7.94475 21.7713 7.52954 21.9253 7.05317L22.5557 5.1149L23.1855 7.05365C23.3396 7.52997 23.6408 7.94512 24.0459 8.2393C24.451 8.53349 24.9389 8.69155 25.4396 8.69072L27.4779 8.69134L25.8283 9.8891C25.4227 10.1828 25.1209 10.5976 24.9663 11.0739C24.8118 11.5502 24.8125 12.0632 24.9683 12.5391L25.5974 14.4767L23.9485 13.279C23.5438 12.9844 23.0562 12.8258 22.5557 12.8258C22.0551 12.8258 21.5675 12.9844 21.1628 13.279L19.5139 14.4767L20.143 12.5398C20.2989 12.0636 20.2995 11.5503 20.1448 11.0738C19.9901 10.5973 19.6881 10.1822 19.2823 9.88842L17.634 8.69072H19.6715Z" fill="black"/>
</svg>
