<svg width="46" height="47" viewBox="0 0 46 47" fill="none" xmlns="http://www.w3.org/2000/svg">
<circle cx="23" cy="23.5" r="22.75" fill="#F8FAFC" stroke="#D9D9D9" stroke-width="0.5"/>
<path fill-rule="evenodd" clip-rule="evenodd" d="M34.5807 15.8486C34.8611 16.3225 35 16.9046 35 17.5909H34.25H33.5C33.5 17.4297 33.489 17.29 33.4703 17.1689L27.7975 23.0136L33.4202 29.1054C33.4702 28.9229 33.5 28.695 33.5 28.4091V17.5909H34.25H35V28.4091C35 29.4429 34.7055 30.3616 33.943 30.9367C33.4063 31.3415 32.7316 31.5 32 31.5H13.25C12.6546 31.5 12.1178 31.2119 11.7358 30.8383C11.3249 30.4364 11 29.8437 11 29.1818V16.8182C11 16.1563 11.3249 15.5636 11.7359 15.1618C12.1178 14.7883 12.6546 14.5003 13.2498 14.5L31.25 14.5C31.2663 14.5 31.2829 14.5 31.2999 14.5C31.8376 14.4996 32.7284 14.499 33.4889 14.8611C33.9043 15.0589 34.2979 15.3704 34.5807 15.8486ZM32.1317 29.9521L26.7365 24.1067L25.7803 25.0919C24.7075 26.1972 23.5269 26.468 22.4857 26.2934C21.4911 26.1266 20.6795 25.5657 20.2197 25.0919L20.2176 25.0898L19.2615 24.0971L13.6201 29.9545H32C32.0454 29.9545 32.0893 29.9537 32.1317 29.9521ZM12.5 28.9235L18.205 23L12.5 17.0766V28.9235ZM32.373 16.1138C32.032 16.0509 31.6461 16.0455 31.25 16.0455H13.6201L21.2803 23.9991C21.2807 23.9994 21.28 23.9987 21.2803 23.9991C21.5707 24.2978 22.1096 24.6645 22.7268 24.768C23.2981 24.8638 23.9925 24.7483 24.7197 23.9991L32.373 16.1138Z" fill="url(#paint0_linear_0_1)"/>
<defs>
<linearGradient id="paint0_linear_0_1" x1="11.5714" y1="15.0667" x2="34.8689" y2="31.6838" gradientUnits="userSpaceOnUse">
<stop stop-color="#F10184"/>
<stop offset="1" stop-color="#BD09F1"/>
</linearGradient>
</defs>
</svg>
