<svg width="151" height="37" viewBox="0 0 151 37" fill="none" xmlns="http://www.w3.org/2000/svg">
<path d="M140.843 27.3906C132.231 27.3906 129.337 17.2886 134.799 11.7862C136.58 9.99268 138.481 9.08984 141.11 9.08984H150V26.8538C150 30.4286 148.341 33.2225 145.349 34.8695C142.563 36.3946 138.675 36.0896 135.393 36.0896V32.8809C137.96 32.8809 142.163 33.1127 144.017 32.039C145.724 31.063 146.596 29.4769 146.596 27.2442V12.2986H141.11C133.297 12.2986 133.273 24.1941 140.843 24.1941C142.503 24.1941 143.439 23.9842 144.698 23.0691V26.4975C143.342 27.2661 142.406 27.3906 140.843 27.3906Z" fill="#7F8FD1" stroke="#7F8FD1" stroke-width="0.739655"/>
<path d="M101.536 20.0227V0.794678H104.903V20.0227C104.903 23.3168 106.259 24.0245 109.203 24.0245V27.1844C103.837 27.1844 101.536 25.4153 101.536 20.0227Z" fill="#7F8FD1" stroke="#7F8FD1" stroke-width="0.739655"/>
<path d="M92.7185 9.09103H96.3521L91.8222 16.9726C96.6428 18.278 96.4248 22.8776 96.4248 27.1844H93.1303C93.1303 24.6345 93.4573 22.2066 91.6526 20.5351C90.1628 19.1443 87.8858 18.9979 85.6813 19.2663V27.1844H82.3868V0.794678H85.6813V16.2893C86.7351 16.1429 87.7767 16.1429 88.8305 16.2893L92.7185 9.09103Z" fill="#5165C8" stroke="#5165C8" stroke-width="0.739655"/>
<path d="M68.2774 27.1833V16.8983C68.2774 13.2015 69.0526 10.6638 71.79 9.65115C73.9701 8.84591 76.441 9.08992 79.0451 9.08992V12.2621C77.4705 12.2621 74.5273 12.0424 73.2555 12.5549C71.8142 13.1405 71.5719 14.6534 71.5719 16.8983V27.1833H68.2774Z" fill="#5165C8" stroke="#5165C8" stroke-width="0.739655"/>
<path d="M49.7953 11.7494C55.2821 6.13713 65.2746 9.94369 65.2746 18.1546C65.2746 28.1469 51.6 30.6114 47.8937 21.6806C46.525 18.3743 47.1791 14.3481 49.7953 11.7494ZM56.2389 12.2984C48.7779 12.2984 48.7779 24.0109 56.2389 24.0109C63.7121 24.0109 63.7121 12.2984 56.2389 12.2984Z" fill="#5165C8" stroke="#5165C8" stroke-width="0.739655"/>
<path d="M45.1169 12.2624H40.8049V27.1837H37.4378V12.2624H34.8942L36.3961 9.09028H37.4378C37.4378 3.70985 41.5075 0.757324 46.6067 0.757324V3.92946C42.7429 3.92946 40.8049 5.64973 40.8049 9.09028H45.1169V12.2624Z" fill="#5165C8" stroke="#5165C8" stroke-width="0.739655"/>
<path fill-rule="evenodd" clip-rule="evenodd" d="M23.1705 24.9702C21.6201 24.8848 20.0577 25.0312 18.5073 24.653C16.424 24.1162 14.6435 23.0425 12.9478 21.8225C11.6518 20.8709 10.368 19.8948 9.04773 18.992C6.57686 17.2473 3.20968 17.4425 -3.05176e-05 17.3815C-3.05176e-05 16.5763 0.0241937 15.771 0.0241937 14.9658C0.0241937 14.1484 -3.05176e-05 13.3431 -3.05176e-05 12.5379C3.20968 12.4769 6.57686 12.6721 9.04773 10.9274C10.368 10.0246 11.6518 9.04855 12.9478 8.09691C14.6435 6.87686 16.424 5.80322 18.5073 5.26639C20.0577 4.88818 21.6201 5.03458 23.1705 4.94918C22.4195 4.03414 21.6686 3.30211 20.8328 2.46027C20.6027 2.22846 20.4089 1.96005 20.6027 1.61844C20.7481 1.35003 21.0145 1.27682 21.3052 1.27682C22.2984 1.26462 23.2553 1.21582 24.2485 1.21582C25.0236 1.21582 25.6656 1.50863 26.2106 2.05766C27.6399 3.52172 29.0691 4.94918 30.4862 6.41324C31.2493 7.19407 31.225 7.7797 30.4499 8.58493C29.0449 10.0246 27.5914 11.4521 26.1743 12.9161C25.6535 13.4407 25.0357 13.7092 24.309 13.7336C23.3643 13.758 22.4195 13.758 21.4748 13.758C21.1235 13.758 20.7723 13.697 20.6027 13.3309C20.3847 12.9283 20.6875 12.6843 20.9297 12.4281C21.6928 11.6839 22.4438 10.9518 23.34 10.0856C20.9782 9.80499 18.9676 10.0368 17.1871 11.269C15.6125 12.3671 14.0622 13.5017 12.4512 14.6242C12.2696 14.7462 12.1606 14.856 12.1484 14.9658C12.1606 15.0634 12.2696 15.1732 12.4512 15.2952C14.0622 16.4177 15.6125 17.5523 17.1871 18.6504C18.9676 19.8826 20.9782 20.1144 23.34 19.8338C22.4438 18.9676 21.6928 18.2355 20.9297 17.4913C20.6875 17.2351 20.3847 16.9911 20.6027 16.5885C20.7723 16.2225 21.1235 16.1615 21.4748 16.1615C22.4195 16.1615 23.3643 16.1615 24.309 16.1859C25.0357 16.2103 25.6535 16.4787 26.1743 17.0033C27.5914 18.4674 29.0449 19.8948 30.4499 21.3345C31.225 22.1397 31.2493 22.7253 30.4862 23.5062C29.0691 24.9702 27.6399 26.3977 26.2106 27.8618C25.6656 28.4108 25.0236 28.7036 24.2485 28.7036C23.2553 28.7036 22.2984 28.6548 21.3052 28.6426C21.0145 28.6426 20.7481 28.5694 20.6027 28.301C20.4089 27.9594 20.6027 27.6909 20.8328 27.4591C21.6686 26.6173 22.4195 25.8853 23.1705 24.9702Z" fill="#DDA641"/>
<path d="M114.09 11.7494C119.577 6.13713 129.569 9.94369 129.569 18.1546C129.569 28.1469 115.895 30.6114 112.188 21.6806C110.82 18.3743 111.486 14.3481 114.09 11.7494ZM120.546 12.2984C113.072 12.2984 113.072 24.0109 120.546 24.0109C128.007 24.0109 128.007 12.2984 120.546 12.2984Z" fill="#7F8FD1" stroke="#7F8FD1" stroke-width="0.739655"/>
</svg>
