<svg width="254" height="254" viewBox="0 0 254 254" fill="none" xmlns="http://www.w3.org/2000/svg">
<path d="M82.0836 84C89.2028 84 95.3703 85.2373 100.586 87.712C105.802 90.1867 109.799 93.686 112.578 98.21C115.358 102.734 116.747 107.993 116.747 113.986C116.747 119.979 115.358 125.238 112.578 129.762C109.799 134.286 105.802 137.785 100.586 140.26C95.3703 142.735 89.2028 143.972 82.0836 143.972H57.6991V171H34V84H82.0836ZM80.713 124.716C84.5201 124.716 87.4896 123.769 89.6216 121.874C91.7536 119.979 92.8196 117.35 92.8196 113.986C92.8196 110.622 91.7536 107.993 89.6216 106.098C87.4896 104.203 84.5201 103.256 80.713 103.256H57.6991V124.716H80.713Z" fill="#D32D79"/>
<path d="M142.852 84L171.005 148.612L199.045 84H224L184.14 171H157.3L117.44 84H142.852Z" fill="#3A3A3A"/>
</svg>
