<svg width="309" height="66" viewBox="0 0 309 66" fill="none" xmlns="http://www.w3.org/2000/svg">
<path d="M18.524 0.879999C21.2667 0.879999 23.6427 1.34933 25.652 2.288C27.6613 3.22667 29.2013 4.554 30.272 6.27C31.3427 7.986 31.878 9.98067 31.878 12.254C31.878 14.5273 31.3427 16.522 30.272 18.238C29.2013 19.954 27.6613 21.2813 25.652 22.22C23.6427 23.1587 21.2667 23.628 18.524 23.628H9.13V33.88H0V0.879999H18.524ZM17.996 16.324C19.4627 16.324 20.6067 15.9647 21.428 15.246C22.2493 14.5273 22.66 13.53 22.66 12.254C22.66 10.978 22.2493 9.98067 21.428 9.262C20.6067 8.54333 19.4627 8.184 17.996 8.184H9.13V16.324H17.996Z" fill="#D32D79"/>
<path d="M50.0404 34.606C46.8577 34.606 44.049 34.056 41.6144 32.956C39.1797 31.8413 37.2877 30.2793 35.9384 28.27C34.6037 26.2607 33.9364 23.9433 33.9364 21.318C33.9364 18.6927 34.6037 16.3753 35.9384 14.366C37.2877 12.342 39.1797 10.78 41.6144 9.68C44.049 8.56533 46.8577 8.008 50.0404 8.008C53.223 8.008 56.0317 8.56533 58.4664 9.68C60.901 10.78 62.7857 12.342 64.1204 14.366C65.4697 16.3753 66.1444 18.6927 66.1444 21.318C66.1444 23.9433 65.4697 26.2607 64.1204 28.27C62.7857 30.2793 60.901 31.8413 58.4664 32.956C56.0317 34.056 53.223 34.606 50.0404 34.606ZM43.0004 21.318C43.0004 22.682 43.279 23.8627 43.8364 24.86C44.4084 25.8427 45.2224 26.598 46.2784 27.126C47.3344 27.654 48.5884 27.918 50.0404 27.918C51.4924 27.918 52.7464 27.654 53.8024 27.126C54.8584 26.598 55.665 25.8427 56.2224 24.86C56.7797 23.8627 57.0584 22.682 57.0584 21.318C57.0584 19.954 56.7724 18.7733 56.2004 17.776C55.643 16.7787 54.8364 16.016 53.7804 15.488C52.739 14.96 51.4924 14.696 50.0404 14.696C48.5884 14.696 47.3344 14.96 46.2784 15.488C45.2224 16.016 44.4084 16.7787 43.8364 17.776C43.279 18.7733 43.0004 19.954 43.0004 21.318Z" fill="#D32D79"/>
<path d="M79.3451 0V33.88H70.3471V0H79.3451Z" fill="#D32D79"/>
<path d="M84.7519 0H93.7499V22.836L105.19 8.734H114.65L105.938 18.744L115.31 33.88H105.168L100.196 25.344L92.7819 33.88H84.7519V0Z" fill="#D32D79"/>
<path d="M138.581 28.798C137.364 30.646 135.846 32.076 134.027 33.088C132.208 34.1 130.177 34.606 127.933 34.606C125.498 34.606 123.335 34.056 121.443 32.956C119.566 31.8413 118.106 30.2793 117.065 28.27C116.024 26.246 115.503 23.9287 115.503 21.318C115.503 18.6927 116.024 16.3753 117.065 14.366C118.106 12.342 119.566 10.78 121.443 9.68C123.335 8.56533 125.498 8.008 127.933 8.008C130.162 8.008 132.194 8.50667 134.027 9.504C135.86 10.5013 137.386 11.9167 138.603 13.75L139.241 8.734H148.569L146.985 21.296L148.569 33.88H139.241L138.581 28.798ZM124.589 21.318C124.589 22.55 124.846 23.65 125.359 24.618C125.872 25.586 126.584 26.3487 127.493 26.906C128.417 27.4487 129.466 27.72 130.639 27.72C131.827 27.72 132.964 27.4487 134.049 26.906C135.149 26.3487 136.11 25.586 136.931 24.618C137.767 23.65 138.39 22.55 138.801 21.318C138.39 20.086 137.767 18.986 136.931 18.018C136.11 17.0353 135.149 16.2727 134.049 15.73C132.964 15.1727 131.827 14.894 130.639 14.894C129.466 14.894 128.417 15.1727 127.493 15.73C126.584 16.2727 125.872 17.0353 125.359 18.018C124.846 18.986 124.589 20.086 124.589 21.318Z" fill="#D32D79"/>
<path d="M160.699 0.879999L171.545 25.388L182.347 0.879999H191.961L176.605 33.88H166.265L150.909 0.879999H160.699Z" fill="#222222"/>
<path d="M204.709 34.606C201.673 34.606 198.953 34.0487 196.547 32.934C194.142 31.8047 192.257 30.228 190.893 28.204C189.529 26.18 188.847 23.8553 188.847 21.23C188.847 18.6487 189.5 16.3533 190.805 14.344C192.125 12.3347 193.944 10.78 196.261 9.68C198.579 8.56533 201.189 8.008 204.093 8.008C207.041 8.008 209.593 8.66067 211.749 9.966C213.905 11.2567 215.555 13.0973 216.699 15.488C217.858 17.864 218.437 20.658 218.437 23.87H198.593C199.209 25.2047 200.251 26.2313 201.717 26.95C203.184 27.654 205.032 28.006 207.261 28.006C209.109 28.006 210.95 27.764 212.783 27.28C214.617 26.796 216.289 26.1067 217.799 25.212V30.932C216.039 32.12 214.052 33.0293 211.837 33.66C209.623 34.2907 207.247 34.606 204.709 34.606ZM210.077 18.458C209.667 17.138 208.963 16.126 207.965 15.422C206.983 14.7033 205.758 14.344 204.291 14.344C202.751 14.344 201.446 14.718 200.375 15.466C199.319 16.1993 198.593 17.1967 198.197 18.458H210.077Z" fill="#222222"/>
<path d="M230.601 8.734L231.701 15.356C233.402 10.4573 236.416 8.008 240.743 8.008C241.711 8.008 242.745 8.12533 243.845 8.36V16.038C242.202 15.7007 240.677 15.532 239.269 15.532C237.128 15.532 235.397 16.1773 234.077 17.468C232.757 18.7587 232.097 20.7827 232.097 23.54V33.88H223.099V17.204L221.449 8.734H230.601Z" fill="#222222"/>
<path d="M276.117 25.674C276.117 27.5953 275.53 29.2233 274.357 30.558C273.198 31.8927 271.526 32.9047 269.341 33.594C267.155 34.2687 264.545 34.606 261.509 34.606C258.399 34.606 255.657 34.2247 253.281 33.462C250.919 32.6993 249.071 31.6287 247.737 30.25C246.402 28.8567 245.691 27.2507 245.603 25.432H254.733C255.026 26.4587 255.781 27.2507 256.999 27.808C258.231 28.3653 259.859 28.644 261.883 28.644C263.687 28.644 265.043 28.468 265.953 28.116C266.877 27.764 267.339 27.2433 267.339 26.554C267.339 26.158 267.184 25.8427 266.876 25.608C266.583 25.3587 266.099 25.1607 265.424 25.014C264.764 24.8527 263.855 24.728 262.697 24.64L258.253 24.31C253.955 23.9873 250.89 23.1733 249.057 21.868C247.223 20.5627 246.307 18.7733 246.307 16.5C246.307 14.652 246.886 13.0973 248.045 11.836C249.218 10.56 250.868 9.60667 252.995 8.976C255.121 8.33067 257.615 8.008 260.475 8.008C263.261 8.008 265.762 8.37467 267.977 9.108C270.206 9.84133 271.981 10.868 273.301 12.188C274.635 13.508 275.398 15.026 275.589 16.742H266.458C266.224 15.862 265.578 15.136 264.522 14.564C263.466 13.992 261.978 13.706 260.057 13.706C258.458 13.706 257.233 13.882 256.383 14.234C255.547 14.5713 255.129 15.0553 255.129 15.686C255.129 16.2287 255.393 16.6393 255.921 16.918C256.449 17.1967 257.409 17.3873 258.803 17.49L264.633 17.93C267.478 18.1353 269.744 18.5607 271.431 19.206C273.117 19.8513 274.32 20.7093 275.039 21.78C275.757 22.836 276.117 24.134 276.117 25.674Z" fill="#222222"/>
<path d="M295.061 34.606C292.025 34.606 289.304 34.0487 286.899 32.934C284.493 31.8047 282.609 30.228 281.245 28.204C279.881 26.18 279.199 23.8553 279.199 21.23C279.199 18.6487 279.851 16.3533 281.157 14.344C282.477 12.3347 284.295 10.78 286.613 9.68C288.93 8.56533 291.541 8.008 294.445 8.008C297.393 8.008 299.945 8.66067 302.101 9.966C304.257 11.2567 305.907 13.0973 307.051 15.488C308.209 17.864 308.789 20.658 308.789 23.87H288.945C289.561 25.2047 290.602 26.2313 292.069 26.95C293.535 27.654 295.383 28.006 297.613 28.006C299.461 28.006 301.301 27.764 303.135 27.28C304.968 26.796 306.64 26.1067 308.151 25.212V30.932C306.391 32.12 304.403 33.0293 302.189 33.66C299.974 34.2907 297.598 34.606 295.061 34.606ZM300.429 18.458C300.018 17.138 299.314 16.126 298.317 15.422C297.334 14.7033 296.109 14.344 294.643 14.344C293.103 14.344 291.797 14.718 290.727 15.466C289.671 16.1993 288.945 17.1967 288.549 18.458H300.429Z" fill="#222222"/>
<path d="M52.4711 50.8818C53.3511 50.8818 54.1218 51.0418 54.7831 51.3618C55.4445 51.6818 55.9538 52.1298 56.3111 52.7058C56.6738 53.2765 56.8551 53.9325 56.8551 54.6738C56.8551 55.4151 56.6738 56.0738 56.3111 56.6498C55.9538 57.2205 55.4445 57.6658 54.7831 57.9858C54.1218 58.3058 53.3511 58.4658 52.4711 58.4658H48.2311V62.8818H46.1191V50.8818H52.4711ZM52.3911 56.6418C52.8658 56.6418 53.2765 56.5618 53.6231 56.4018C53.9751 56.2418 54.2445 56.0151 54.4311 55.7218C54.6178 55.4231 54.7111 55.0738 54.7111 54.6738C54.7111 54.2738 54.6178 53.9271 54.4311 53.6338C54.2445 53.3351 53.9751 53.1058 53.6231 52.9458C53.2765 52.7858 52.8658 52.7058 52.3911 52.7058H48.2311V56.6418H52.3911Z" fill="#646464"/>
<path d="M63.5215 63.1058C62.4335 63.1058 61.4708 62.9085 60.6335 62.5138C59.8015 62.1138 59.1535 61.5538 58.6895 60.8338C58.2308 60.1138 58.0015 59.2871 58.0015 58.3538C58.0015 57.4205 58.2308 56.5938 58.6895 55.8738C59.1535 55.1538 59.8015 54.5965 60.6335 54.2018C61.4708 53.8018 62.4335 53.6018 63.5215 53.6018C64.6095 53.6018 65.5695 53.8018 66.4015 54.2018C67.2388 54.5965 67.8868 55.1538 68.3455 55.8738C68.8095 56.5938 69.0415 57.4205 69.0415 58.3538C69.0415 59.2871 68.8095 60.1138 68.3455 60.8338C67.8868 61.5538 67.2388 62.1138 66.4015 62.5138C65.5695 62.9085 64.6095 63.1058 63.5215 63.1058ZM60.1135 58.3538C60.1135 58.9885 60.2522 59.5405 60.5295 60.0098C60.8068 60.4791 61.2015 60.8418 61.7135 61.0978C62.2255 61.3485 62.8282 61.4738 63.5215 61.4738C64.2149 61.4738 64.8175 61.3485 65.3295 61.0978C65.8415 60.8418 66.2362 60.4791 66.5135 60.0098C66.7908 59.5405 66.9295 58.9885 66.9295 58.3538C66.9295 57.7245 66.7908 57.1751 66.5135 56.7058C66.2362 56.2365 65.8415 55.8738 65.3295 55.6178C64.8175 55.3618 64.2149 55.2338 63.5215 55.2338C62.8282 55.2338 62.2255 55.3618 61.7135 55.6178C61.2015 55.8738 60.8068 56.2365 60.5295 56.7058C60.2522 57.1751 60.1135 57.7245 60.1135 58.3538Z" fill="#646464"/>
<path d="M71.9573 53.8258L74.7013 60.8098L77.4453 53.8258H79.5253L82.2133 60.8578L84.9653 53.8258H87.0453L83.3973 62.8818H81.2693L78.4693 55.7938L75.6053 62.8818H73.4773L69.8453 53.8258H71.9573Z" fill="#646464"/>
<path d="M93.3044 63.1058C92.2537 63.1058 91.3124 62.9058 90.4804 62.5058C89.6537 62.1058 89.0084 61.5458 88.5444 60.8258C88.0804 60.1005 87.8484 59.2711 87.8484 58.3378C87.8484 57.4098 88.0697 56.5885 88.5124 55.8738C88.9551 55.1538 89.5711 54.5965 90.3604 54.2018C91.1497 53.8018 92.0457 53.6018 93.0484 53.6018C94.0457 53.6018 94.9177 53.8285 95.6644 54.2818C96.4164 54.7351 96.9951 55.3778 97.4004 56.2098C97.8057 57.0365 98.0084 57.9965 98.0084 59.0898H90.0564C90.2377 59.8418 90.6457 60.4285 91.2804 60.8498C91.9204 61.2658 92.7284 61.4738 93.7044 61.4738C94.4031 61.4738 95.1124 61.3645 95.8324 61.1458C96.5577 60.9218 97.1977 60.6151 97.7524 60.2258V61.7298C97.1924 62.1565 96.5151 62.4925 95.7204 62.7378C94.9311 62.9831 94.1257 63.1058 93.3044 63.1058ZM95.8484 57.5058C95.6991 56.7858 95.3737 56.2285 94.8724 55.8338C94.3764 55.4338 93.7524 55.2338 93.0004 55.2338C92.4777 55.2338 92.0084 55.3271 91.5924 55.5138C91.1817 55.6951 90.8404 55.9565 90.5684 56.2978C90.2964 56.6391 90.1151 57.0418 90.0244 57.5058H95.8484Z" fill="#646464"/>
<path d="M101.768 53.8258L102.176 56.3218C102.458 55.4791 102.893 54.8151 103.48 54.3298C104.072 53.8445 104.797 53.6018 105.656 53.6018C105.869 53.6018 106.088 53.6178 106.312 53.6498C106.536 53.6765 106.733 53.7138 106.904 53.7618V55.5858C106.669 55.5218 106.413 55.4738 106.136 55.4418C105.864 55.4098 105.602 55.3938 105.352 55.3938C104.76 55.3938 104.234 55.5245 103.776 55.7858C103.317 56.0471 102.957 56.4338 102.696 56.9458C102.44 57.4525 102.312 58.0658 102.312 58.7858V62.8818H100.232V56.7218L99.6878 53.8258H101.768Z" fill="#646464"/>
<path d="M113.198 63.1058C112.147 63.1058 111.206 62.9058 110.374 62.5058C109.547 62.1058 108.902 61.5458 108.438 60.8258C107.974 60.1005 107.742 59.2711 107.742 58.3378C107.742 57.4098 107.963 56.5885 108.406 55.8738C108.849 55.1538 109.465 54.5965 110.254 54.2018C111.043 53.8018 111.939 53.6018 112.942 53.6018C113.939 53.6018 114.811 53.8285 115.558 54.2818C116.31 54.7351 116.889 55.3778 117.294 56.2098C117.699 57.0365 117.902 57.9965 117.902 59.0898H109.95C110.131 59.8418 110.539 60.4285 111.174 60.8498C111.814 61.2658 112.622 61.4738 113.598 61.4738C114.297 61.4738 115.006 61.3645 115.726 61.1458C116.451 60.9218 117.091 60.6151 117.646 60.2258V61.7298C117.086 62.1565 116.409 62.4925 115.614 62.7378C114.825 62.9831 114.019 63.1058 113.198 63.1058ZM115.742 57.5058C115.593 56.7858 115.267 56.2285 114.766 55.8338C114.27 55.4338 113.646 55.2338 112.894 55.2338C112.371 55.2338 111.902 55.3271 111.486 55.5138C111.075 55.6951 110.734 55.9565 110.462 56.2978C110.19 56.6391 110.009 57.0418 109.918 57.5058H115.742Z" fill="#646464"/>
<path d="M128.262 60.5778C127.792 61.3778 127.195 61.9991 126.47 62.4418C125.744 62.8845 124.942 63.1058 124.062 63.1058C123.187 63.1058 122.406 62.9085 121.718 62.5138C121.03 62.1138 120.494 61.5538 120.11 60.8338C119.726 60.1138 119.534 59.2871 119.534 58.3538C119.534 57.4205 119.726 56.5938 120.11 55.8738C120.494 55.1538 121.03 54.5965 121.718 54.2018C122.406 53.8018 123.187 53.6018 124.062 53.6018C124.947 53.6018 125.75 53.8231 126.47 54.2658C127.195 54.7031 127.792 55.3218 128.262 56.1218L128.83 50.5618H130.974L130.158 58.2258L130.622 62.8818H128.494L128.262 60.5778ZM121.646 58.3538C121.646 58.9511 121.768 59.4845 122.014 59.9538C122.264 60.4231 122.611 60.7885 123.054 61.0498C123.496 61.3111 123.998 61.4418 124.558 61.4418C125.118 61.4418 125.643 61.3138 126.134 61.0578C126.63 60.7965 127.067 60.4338 127.446 59.9698C127.83 59.5058 128.136 58.9671 128.366 58.3538C128.136 57.7458 127.83 57.2098 127.446 56.7458C127.067 56.2818 126.63 55.9191 126.134 55.6578C125.643 55.3965 125.118 55.2658 124.558 55.2658C123.998 55.2658 123.496 55.3991 123.054 55.6658C122.611 55.9271 122.264 56.2925 122.014 56.7618C121.768 57.2258 121.646 57.7565 121.646 58.3538Z" fill="#646464"/>
<path d="M139.737 50.5618V56.1298C140.207 55.3298 140.804 54.7085 141.529 54.2658C142.255 53.8231 143.06 53.6018 143.945 53.6018C144.82 53.6018 145.601 53.8018 146.289 54.2018C146.977 54.5965 147.513 55.1538 147.897 55.8738C148.281 56.5938 148.473 57.4205 148.473 58.3538C148.473 59.2871 148.281 60.1138 147.897 60.8338C147.513 61.5538 146.977 62.1138 146.289 62.5138C145.601 62.9085 144.82 63.1058 143.945 63.1058C143.06 63.1058 142.255 62.8818 141.529 62.4338C140.804 61.9858 140.207 61.3591 139.737 60.5538V62.8818H137.657V50.5618H139.737ZM139.641 58.3538C139.871 58.9671 140.175 59.5058 140.553 59.9698C140.937 60.4338 141.375 60.7965 141.865 61.0578C142.361 61.3138 142.889 61.4418 143.449 61.4418C144.009 61.4418 144.511 61.3111 144.953 61.0498C145.396 60.7885 145.74 60.4231 145.985 59.9538C146.236 59.4845 146.361 58.9511 146.361 58.3538C146.361 57.7565 146.236 57.2258 145.985 56.7618C145.74 56.2925 145.396 55.9271 144.953 55.6658C144.511 55.3991 144.009 55.2658 143.449 55.2658C142.889 55.2658 142.361 55.3965 141.865 55.6578C141.375 55.9191 140.937 56.2818 140.553 56.7458C140.175 57.2098 139.871 57.7458 139.641 58.3538Z" fill="#646464"/>
<path d="M152.343 65.7458C151.367 65.7458 150.481 65.4951 149.687 64.9938V63.4098C150.103 63.6711 150.495 63.8578 150.863 63.9698C151.231 64.0871 151.639 64.1458 152.087 64.1458C152.545 64.1458 152.943 64.0418 153.279 63.8338C153.615 63.6258 153.889 63.2871 154.103 62.8178L154.207 62.5938H153.383L149.223 53.8258H151.511L154.831 61.2178L158.183 53.8258H160.391L155.703 63.5218C154.993 65.0045 153.873 65.7458 152.343 65.7458Z" fill="#646464"/>
<path d="M167.787 58.9778C167.851 59.4578 168.051 59.8791 168.387 60.2418C168.723 60.6045 169.168 60.8845 169.723 61.0818C170.283 61.2791 170.923 61.3778 171.643 61.3778C172.352 61.3778 172.971 61.3031 173.499 61.1538C174.027 60.9991 174.432 60.7805 174.715 60.4978C175.003 60.2151 175.147 59.8845 175.147 59.5058C175.147 59.1858 175.067 58.9245 174.907 58.7218C174.752 58.5191 174.493 58.3565 174.131 58.2338C173.773 58.1058 173.275 58.0018 172.635 57.9218L170.043 57.5858C169.067 57.4578 168.275 57.2578 167.667 56.9858C167.064 56.7138 166.619 56.3565 166.331 55.9138C166.043 55.4658 165.899 54.9138 165.899 54.2578C165.899 53.5325 166.12 52.9005 166.563 52.3618C167.005 51.8178 167.632 51.3991 168.443 51.1058C169.259 50.8071 170.208 50.6578 171.291 50.6578C172.357 50.6578 173.309 50.8178 174.147 51.1378C174.989 51.4578 175.656 51.9085 176.147 52.4898C176.637 53.0658 176.907 53.7298 176.955 54.4818H174.811C174.757 54.0605 174.579 53.6925 174.275 53.3778C173.971 53.0631 173.557 52.8205 173.035 52.6498C172.517 52.4738 171.92 52.3858 171.243 52.3858C170.592 52.3858 170.021 52.4578 169.531 52.6018C169.045 52.7458 168.669 52.9538 168.403 53.2258C168.141 53.4978 168.011 53.8151 168.011 54.1778C168.011 54.4711 168.085 54.7138 168.235 54.9058C168.384 55.0925 168.627 55.2498 168.963 55.3778C169.304 55.5005 169.765 55.6018 170.347 55.6818L172.971 56.0498C174.064 56.1991 174.917 56.4018 175.531 56.6578C176.149 56.9085 176.592 57.2418 176.859 57.6578C177.125 58.0738 177.259 58.6151 177.259 59.2818C177.259 60.0445 177.024 60.7165 176.555 61.2978C176.085 61.8738 175.424 62.3191 174.571 62.6338C173.717 62.9485 172.731 63.1058 171.611 63.1058C170.469 63.1058 169.453 62.9351 168.563 62.5938C167.677 62.2471 166.979 61.7618 166.467 61.1378C165.96 60.5138 165.685 59.7938 165.643 58.9778H167.787Z" fill="#646464"/>
<path d="M183.174 63.1058C182.348 63.1058 181.641 62.9378 181.054 62.6018C180.468 62.2605 180.02 61.7698 179.71 61.1298C179.406 60.4898 179.254 59.7245 179.254 58.8338V53.8258H181.334V58.5138C181.334 59.4471 181.548 60.1591 181.974 60.6498C182.406 61.1351 183.03 61.3778 183.846 61.3778C184.422 61.3778 184.924 61.2498 185.35 60.9938C185.782 60.7325 186.113 60.3671 186.342 59.8978C186.577 59.4231 186.694 58.8711 186.694 58.2418V53.8258H188.774V59.9378L189.302 62.8818H187.222L186.87 60.7218C186.513 61.4791 186.012 62.0658 185.366 62.4818C184.721 62.8978 183.99 63.1058 183.174 63.1058Z" fill="#646464"/>
<path d="M193.581 50.5618V56.1298C194.05 55.3298 194.648 54.7085 195.373 54.2658C196.098 53.8231 196.904 53.6018 197.789 53.6018C198.664 53.6018 199.445 53.8018 200.133 54.2018C200.821 54.5965 201.357 55.1538 201.741 55.8738C202.125 56.5938 202.317 57.4205 202.317 58.3538C202.317 59.2871 202.125 60.1138 201.741 60.8338C201.357 61.5538 200.821 62.1138 200.133 62.5138C199.445 62.9085 198.664 63.1058 197.789 63.1058C196.904 63.1058 196.098 62.8818 195.373 62.4338C194.648 61.9858 194.05 61.3591 193.581 60.5538V62.8818H191.501V50.5618H193.581ZM193.485 58.3538C193.714 58.9671 194.018 59.5058 194.397 59.9698C194.781 60.4338 195.218 60.7965 195.709 61.0578C196.205 61.3138 196.733 61.4418 197.293 61.4418C197.853 61.4418 198.354 61.3111 198.797 61.0498C199.24 60.7885 199.584 60.4231 199.829 59.9538C200.08 59.4845 200.205 58.9511 200.205 58.3538C200.205 57.7565 200.08 57.2258 199.829 56.7618C199.584 56.2925 199.24 55.9271 198.797 55.6658C198.354 55.3991 197.853 55.2658 197.293 55.2658C196.733 55.2658 196.205 55.3965 195.709 55.6578C195.218 55.9191 194.781 56.2818 194.397 56.7458C194.018 57.2098 193.714 57.7458 193.485 58.3538Z" fill="#646464"/>
<path d="M213.824 60.1298C213.824 60.7431 213.651 61.2738 213.304 61.7218C212.957 62.1645 212.435 62.5058 211.736 62.7458C211.043 62.9858 210.181 63.1058 209.152 63.1058C208.085 63.1058 207.155 62.9698 206.36 62.6978C205.571 62.4258 204.957 62.0445 204.52 61.5538C204.088 61.0578 203.856 60.4818 203.824 59.8258H205.936C206 60.1725 206.173 60.4738 206.456 60.7298C206.739 60.9858 207.112 61.1858 207.576 61.3298C208.04 61.4685 208.571 61.5378 209.168 61.5378C210.037 61.5378 210.688 61.4338 211.12 61.2258C211.557 61.0178 211.776 60.7005 211.776 60.2738C211.776 60.0765 211.712 59.9138 211.584 59.7858C211.456 59.6578 211.24 59.5538 210.936 59.4738C210.637 59.3938 210.219 59.3298 209.68 59.2818L207.904 59.1218C206.549 59.0045 205.576 58.7058 204.984 58.2258C204.392 57.7458 204.096 57.1485 204.096 56.4338C204.096 55.8311 204.285 55.3191 204.664 54.8978C205.043 54.4711 205.573 54.1485 206.256 53.9298C206.944 53.7111 207.744 53.6018 208.656 53.6018C209.584 53.6018 210.419 53.7325 211.16 53.9938C211.901 54.2551 212.491 54.6205 212.928 55.0898C213.365 55.5538 213.611 56.0871 213.664 56.6898H211.552C211.504 56.4285 211.371 56.1831 211.152 55.9538C210.939 55.7245 210.613 55.5378 210.176 55.3938C209.744 55.2445 209.2 55.1698 208.544 55.1698C207.792 55.1698 207.205 55.2685 206.784 55.4658C206.368 55.6631 206.16 55.9431 206.16 56.3058C206.16 56.5565 206.296 56.7618 206.568 56.9218C206.84 57.0818 207.307 57.1911 207.968 57.2498L210.256 57.4578C211.552 57.5805 212.469 57.8685 213.008 58.3218C213.552 58.7698 213.824 59.3725 213.824 60.1298Z" fill="#646464"/>
<path d="M220.918 63.1058C219.83 63.1058 218.868 62.9085 218.03 62.5138C217.198 62.1138 216.55 61.5538 216.086 60.8338C215.628 60.1138 215.398 59.2871 215.398 58.3538C215.398 57.4205 215.628 56.5938 216.086 55.8738C216.55 55.1538 217.198 54.5965 218.03 54.2018C218.868 53.8018 219.83 53.6018 220.918 53.6018C222.006 53.6018 222.966 53.8018 223.798 54.2018C224.636 54.5965 225.284 55.1538 225.742 55.8738C226.206 56.5938 226.438 57.4205 226.438 58.3538C226.438 59.2871 226.206 60.1138 225.742 60.8338C225.284 61.5538 224.636 62.1138 223.798 62.5138C222.966 62.9085 222.006 63.1058 220.918 63.1058ZM217.51 58.3538C217.51 58.9885 217.649 59.5405 217.926 60.0098C218.204 60.4791 218.598 60.8418 219.11 61.0978C219.622 61.3485 220.225 61.4738 220.918 61.4738C221.612 61.4738 222.214 61.3485 222.726 61.0978C223.238 60.8418 223.633 60.4791 223.91 60.0098C224.188 59.5405 224.326 58.9885 224.326 58.3538C224.326 57.7245 224.188 57.1751 223.91 56.7058C223.633 56.2365 223.238 55.8738 222.726 55.6178C222.214 55.3618 221.612 55.2338 220.918 55.2338C220.225 55.2338 219.622 55.3618 219.11 55.6178C218.598 55.8738 218.204 56.2365 217.926 56.7058C217.649 57.1751 217.51 57.7245 217.51 58.3538Z" fill="#646464"/>
<path d="M238.529 59.3138C238.422 60.0551 238.129 60.7138 237.649 61.2898C237.174 61.8658 236.558 62.3138 235.801 62.6338C235.049 62.9485 234.22 63.1058 233.313 63.1058C232.278 63.1058 231.358 62.9058 230.553 62.5058C229.753 62.1058 229.129 61.5458 228.681 60.8258C228.238 60.1058 228.017 59.2818 228.017 58.3538C228.017 57.4258 228.238 56.6018 228.681 55.8818C229.129 55.1618 229.753 54.6018 230.553 54.2018C231.358 53.8018 232.278 53.6018 233.313 53.6018C234.22 53.6018 235.049 53.7618 235.801 54.0818C236.558 54.4018 237.174 54.8498 237.649 55.4258C238.129 56.0018 238.422 56.6631 238.529 57.4098H236.433C236.332 56.9618 236.137 56.5751 235.849 56.2498C235.561 55.9191 235.198 55.6685 234.761 55.4978C234.329 55.3218 233.846 55.2338 233.313 55.2338C232.673 55.2338 232.113 55.3591 231.633 55.6098C231.153 55.8605 230.782 56.2205 230.521 56.6898C230.26 57.1591 230.129 57.7138 230.129 58.3538C230.129 58.9938 230.26 59.5485 230.521 60.0178C230.782 60.4871 231.153 60.8471 231.633 61.0978C232.113 61.3485 232.673 61.4738 233.313 61.4738C233.846 61.4738 234.332 61.3858 234.769 61.2098C235.206 61.0338 235.569 60.7831 235.857 60.4578C236.145 60.1271 236.337 59.7458 236.433 59.3138H238.529Z" fill="#646464"/>
<path d="M241.547 53.9538L242.587 53.7618V62.8818H240.507V53.7618L241.547 53.9538ZM240.187 51.4418C240.187 51.0898 240.313 50.8045 240.563 50.5858C240.819 50.3671 241.147 50.2578 241.547 50.2578C241.947 50.2578 242.273 50.3671 242.523 50.5858C242.779 50.8045 242.907 51.0898 242.907 51.4418C242.907 51.7938 242.779 52.0791 242.523 52.2978C242.273 52.5165 241.947 52.6258 241.547 52.6258C241.147 52.6258 240.819 52.5165 240.563 52.2978C240.313 52.0791 240.187 51.7938 240.187 51.4418Z" fill="#646464"/>
<path d="M253.405 60.6338C252.935 61.4125 252.341 62.0205 251.621 62.4578C250.901 62.8898 250.106 63.1058 249.237 63.1058C248.362 63.1058 247.581 62.9085 246.893 62.5138C246.205 62.1138 245.669 61.5538 245.285 60.8338C244.901 60.1138 244.709 59.2871 244.709 58.3538C244.709 57.4205 244.901 56.5938 245.285 55.8738C245.669 55.1538 246.205 54.5965 246.893 54.2018C247.581 53.8018 248.362 53.6018 249.237 53.6018C250.111 53.6018 250.906 53.8178 251.621 54.2498C252.341 54.6818 252.935 55.2871 253.405 56.0658L253.637 53.8258H255.781L255.301 58.3538L255.781 62.8818H253.637L253.405 60.6338ZM246.821 58.3538C246.821 58.9511 246.943 59.4845 247.189 59.9538C247.439 60.4231 247.786 60.7885 248.229 61.0498C248.671 61.3111 249.173 61.4418 249.733 61.4418C250.293 61.4418 250.818 61.3138 251.309 61.0578C251.805 60.7965 252.242 60.4338 252.621 59.9698C253.005 59.5058 253.311 58.9671 253.541 58.3538C253.311 57.7458 253.005 57.2098 252.621 56.7458C252.242 56.2818 251.805 55.9191 251.309 55.6578C250.818 55.3965 250.293 55.2658 249.733 55.2658C249.173 55.2658 248.671 55.3991 248.229 55.6658C247.786 55.9271 247.439 56.2925 247.189 56.7618C246.943 57.2258 246.821 57.7565 246.821 58.3538Z" fill="#646464"/>
<path d="M260.262 50.5618V62.8818H258.182V50.5618H260.262Z" fill="#646464"/>
</svg>
