<?xml version="1.0" standalone="no"?>
<!DOCTYPE svg PUBLIC "-//W3C//DTD SVG 20010904//EN"
 "http://www.w3.org/TR/2001/REC-SVG-20010904/DTD/svg10.dtd">
<svg version="1.0" xmlns="http://www.w3.org/2000/svg"
 width="1016.000000pt" height="1016.000000pt" viewBox="0 0 1016.000000 1016.000000"
 preserveAspectRatio="xMidYMid meet">
<metadata>
Created by potrace 1.14, written by Peter Selinger 2001-2017
</metadata>
<g transform="translate(0.000000,1016.000000) scale(0.100000,-0.100000)"
fill="#000000" stroke="none">
<path d="M1040 10150 c-25 -4 -63 -11 -84 -14 -60 -10 -207 -61 -287 -101
-165 -81 -317 -208 -430 -358 -99 -131 -189 -337 -225 -512 -4 -22 -9 -1849
-11 -4060 -2 -4424 -7 -4080 58 -4277 62 -188 149 -328 294 -474 166 -166 346
-267 585 -327 l85 -21 4020 -3 c4411 -2 4097 -6 4287 57 175 59 316 143 449
268 192 180 297 375 365 672 11 48 15 8041 4 8110 -5 30 -11 73 -15 95 -19
117 -97 300 -182 428 -55 83 -201 234 -288 298 -83 61 -247 143 -347 173 -186
58 95 54 -4238 54 -2197 0 -4015 -4 -4040 -8z"/>
</g>
</svg>
