<svg width="958" height="958" viewBox="0 0 958 958" fill="none" xmlns="http://www.w3.org/2000/svg">
<path d="M0 310.392C0 199.468 0 144.006 22.2705 101.945C40.2426 68.0012 68.0012 40.2426 101.945 22.2705C144.006 0 199.468 0 310.392 0H647.608C758.532 0 813.994 0 856.055 22.2705C889.999 40.2426 917.757 68.0012 935.729 101.945C958 144.006 958 199.468 958 310.392V647.608C958 758.532 958 813.994 935.729 856.055C917.757 889.999 889.999 917.757 856.055 935.729C813.994 958 758.532 958 647.608 958H310.392C199.468 958 144.006 958 101.945 935.729C68.0012 917.757 40.2426 889.999 22.2705 856.055C0 813.994 0 758.532 0 647.608V310.392Z" fill="url(#paint0_linear_1797_950)"/>
<path d="M368.139 431.296C368.139 399.915 361.822 375.056 349.189 356.717C336.963 338.378 317.401 329.208 290.504 329.208C278.278 329.208 266.663 331.042 255.659 334.71C245.064 338.378 236.505 342.453 229.985 346.936V530.938C235.283 532.161 242.007 533.383 250.158 534.606C258.716 535.421 268.904 535.829 280.723 535.829C308.028 535.829 329.423 526.659 344.91 508.32C360.396 489.573 368.139 463.898 368.139 431.296ZM443.941 432.518C443.941 458.193 440.069 481.423 432.326 502.207C424.99 522.584 414.191 540.108 399.927 554.779C386.071 569.45 369.158 580.657 349.189 588.401C329.22 596.144 306.601 600.015 281.334 600.015C256.882 600.015 233.449 598.181 211.034 594.514C189.027 590.846 170.688 586.77 156.017 582.288V129.923L229.985 117.697V283.36C238.543 278.877 248.935 274.802 261.161 271.134C273.795 267.466 287.651 265.633 302.73 265.633C325.144 265.633 345.113 269.708 362.637 277.859C380.569 285.602 395.444 296.809 407.263 311.48C419.081 326.152 428.047 343.879 434.16 364.664C440.68 385.04 443.941 407.659 443.941 432.518Z" fill="white"/>
<path d="M726.181 431.296C726.181 399.915 719.864 375.056 707.231 356.717C695.005 338.378 675.443 329.208 648.546 329.208C636.32 329.208 624.705 331.042 613.701 334.71C603.106 338.378 594.547 342.453 588.027 346.936V530.938C593.325 532.161 600.049 533.383 608.2 534.606C616.758 535.421 626.946 535.829 638.765 535.829C666.07 535.829 687.465 526.659 702.952 508.32C718.438 489.573 726.181 463.898 726.181 431.296ZM801.983 432.518C801.983 458.193 798.111 481.423 790.368 502.207C783.032 522.584 772.233 540.108 757.969 554.779C744.113 569.45 727.2 580.657 707.231 588.401C687.262 596.144 664.643 600.015 639.376 600.015C614.924 600.015 591.491 598.181 569.076 594.514C547.069 590.846 528.73 586.77 514.059 582.288V129.923L588.027 117.697V283.36C596.585 278.877 606.977 274.802 619.203 271.134C631.837 267.466 645.693 265.633 660.772 265.633C683.186 265.633 703.155 269.708 720.679 277.859C738.611 285.602 753.486 296.809 765.305 311.48C777.123 326.152 786.089 343.879 792.202 364.664C798.722 385.04 801.983 407.659 801.983 432.518Z" fill="white"/>
<path d="M469.286 770.28C500.336 770.28 529.938 764.512 558.092 752.975C586.247 741.437 611.508 726.314 633.874 707.605L660.318 756.249C634.269 782.753 605.061 803.177 572.696 817.52C540.331 831.864 505.861 839.036 469.286 839.036C432.711 839.036 398.241 831.864 365.876 817.52C333.511 803.177 304.304 782.753 278.254 756.249L304.699 707.605C327.065 726.314 352.325 741.437 380.48 752.975C408.635 764.512 438.237 770.28 469.286 770.28Z" fill="white"/>
<path d="M721.448 386.67C721.448 411.991 700.921 432.518 675.6 432.518C650.279 432.518 629.753 411.991 629.753 386.67C629.753 361.349 650.279 340.822 675.6 340.822C700.921 340.822 721.448 361.349 721.448 386.67Z" fill="white"/>
<path d="M363.836 386.67C363.836 411.991 343.309 432.518 317.988 432.518C292.667 432.518 272.141 411.991 272.141 386.67C272.141 361.349 292.667 340.822 317.988 340.822C343.309 340.822 363.836 361.349 363.836 386.67Z" fill="white"/>
<defs>
<linearGradient id="paint0_linear_1797_950" x1="483.026" y1="-505.304" x2="483.026" y2="1524.75" gradientUnits="userSpaceOnUse">
<stop offset="0.109978" stop-color="#F40183"/>
<stop offset="1" stop-color="#7D0495"/>
</linearGradient>
</defs>
</svg>
