<svg width="815" height="310" viewBox="0 0 815 310" fill="none" xmlns="http://www.w3.org/2000/svg">
<path d="M44.7869 180.457C53.1681 180.457 59.2794 179.497 63.1208 177.576C66.9621 175.481 68.8828 171.989 68.8828 167.1C68.8828 162.56 66.7875 158.806 62.5969 155.838C58.5809 152.869 51.8585 149.639 42.4297 146.147C36.6677 144.052 31.3421 141.869 26.4531 139.599C21.7387 137.154 17.6354 134.361 14.1432 131.218C10.6511 128.075 7.85736 124.321 5.76206 119.956C3.84137 115.416 2.88103 109.916 2.88103 103.455C2.88103 90.8834 7.50814 81.0181 16.7624 73.8591C26.0166 66.5256 38.5883 62.8588 54.4777 62.8588C62.5096 62.8588 70.1924 63.6446 77.5259 65.216C84.8594 66.6129 90.3596 68.0098 94.0263 69.4066L88.2643 95.074C84.7721 93.5025 80.3196 92.1057 74.9068 90.8834C69.4939 89.4865 63.2081 88.7881 56.0491 88.7881C49.5886 88.7881 44.3504 89.9231 40.3344 92.193C36.3184 94.2883 34.3105 97.6058 34.3105 102.146C34.3105 104.416 34.6597 106.424 35.3581 108.17C36.2311 109.916 37.628 111.574 39.5487 113.146C41.4694 114.543 44.0012 116.027 47.1441 117.598C50.2871 118.995 54.1284 120.479 58.6682 122.051C66.1764 124.845 72.5496 127.638 77.7878 130.432C83.026 133.051 87.3039 136.107 90.6215 139.599C94.1137 142.917 96.6455 146.758 98.2169 151.123C99.7884 155.488 100.574 160.727 100.574 166.838C100.574 179.933 95.6851 189.886 85.9071 196.696C76.3036 203.331 62.5096 206.648 44.525 206.648C32.4771 206.648 22.7863 205.601 15.4528 203.505C8.11927 201.585 2.96833 200.013 0 198.791L5.50015 172.338C10.2146 174.259 15.802 176.092 22.2625 177.838C28.8976 179.584 36.4057 180.457 44.7869 180.457Z" fill="#EB2F96"/>
<path d="M239.919 199.053C233.808 200.624 225.863 202.196 216.085 203.767C206.307 205.513 195.569 206.387 183.87 206.387C172.87 206.387 163.616 204.815 156.108 201.672C148.774 198.529 142.837 194.164 138.298 188.577C133.932 182.989 130.789 176.354 128.869 168.671C126.948 160.814 125.988 152.258 125.988 143.004V66.2637H157.679V138.028C157.679 152.695 159.774 163.171 163.965 169.457C168.33 175.743 175.838 178.886 186.489 178.886C190.331 178.886 194.347 178.711 198.537 178.362C202.903 178.013 206.133 177.576 208.228 177.052V66.2637H239.919V199.053Z" fill="#EB2F96"/>
<path d="M368.52 134.361C368.52 120.916 365.814 110.265 360.401 102.408C355.163 94.5502 346.781 90.6215 335.257 90.6215C330.019 90.6215 325.043 91.4072 320.328 92.9787C315.789 94.5502 312.122 96.2962 309.328 98.2169V177.052C311.598 177.576 314.479 178.1 317.971 178.624C321.638 178.973 326.003 179.148 331.067 179.148C342.766 179.148 351.932 175.219 358.568 167.362C365.203 159.33 368.52 148.329 368.52 134.361ZM400.997 134.885C400.997 145.885 399.338 155.838 396.021 164.743C392.878 173.473 388.251 180.981 382.14 187.267C376.203 193.553 368.957 198.355 360.401 201.672C351.845 204.99 342.154 206.648 331.329 206.648C320.852 206.648 310.812 205.863 301.209 204.291C291.78 202.72 283.923 200.974 277.637 199.053V5.23823L309.328 0V70.9781C312.995 69.0574 317.447 67.3113 322.686 65.7399C328.098 64.1684 334.035 63.3827 340.496 63.3827C350.099 63.3827 358.655 65.1287 366.163 68.6209C373.846 71.9384 380.219 76.7402 385.283 83.026C390.346 89.3119 394.188 96.9074 396.807 105.812C399.6 114.543 400.997 124.234 400.997 134.885Z" fill="#EB2F96"/>
<path d="M521.923 134.361C521.923 120.916 519.216 110.265 513.803 102.408C508.565 94.5502 500.184 90.6215 488.66 90.6215C483.422 90.6215 478.445 91.4072 473.731 92.9787C469.191 94.5502 465.524 96.2962 462.731 98.2169V177.052C465.001 177.576 467.882 178.1 471.374 178.624C475.041 178.973 479.406 179.148 484.469 179.148C496.168 179.148 505.335 175.219 511.97 167.362C518.605 159.33 521.923 148.329 521.923 134.361ZM554.4 134.885C554.4 145.885 552.741 155.838 549.424 164.743C546.281 173.473 541.653 180.981 535.542 187.267C529.606 193.553 522.359 198.355 513.803 201.672C505.248 204.99 495.557 206.648 484.731 206.648C474.255 206.648 464.215 205.863 454.611 204.291C445.183 202.72 437.325 200.974 431.039 199.053V5.23823L462.731 0V70.9781C466.397 69.0574 470.85 67.3113 476.088 65.7399C481.501 64.1684 487.438 63.3827 493.898 63.3827C503.502 63.3827 512.057 65.1287 519.566 68.6209C527.248 71.9384 533.621 76.7402 538.685 83.026C543.749 89.3119 547.59 96.9074 550.209 105.812C553.003 114.543 554.4 124.234 554.4 134.885Z" fill="#EB2F96"/>
<path d="M576.846 135.408C576.846 123.36 578.593 112.797 582.085 103.717C585.751 94.6375 590.553 87.1293 596.49 81.1927C602.427 75.0814 609.236 70.5416 616.919 67.5733C624.602 64.4303 632.459 62.8588 640.491 62.8588C659.349 62.8588 674.016 68.7082 684.492 80.4069C695.143 92.1057 700.469 109.566 700.469 132.789C700.469 134.535 700.381 136.543 700.207 138.813C700.207 140.909 700.12 142.829 699.945 144.575H609.585C610.458 155.576 614.3 164.131 621.11 170.243C628.094 176.179 638.134 179.148 651.229 179.148C658.912 179.148 665.896 178.449 672.182 177.052C678.643 175.656 683.706 174.171 687.373 172.6L691.564 198.529C689.818 199.402 687.373 200.363 684.23 201.41C681.262 202.283 677.77 203.069 673.754 203.767C669.912 204.64 665.722 205.339 661.182 205.863C656.642 206.387 652.015 206.648 647.301 206.648C635.253 206.648 624.776 204.902 615.871 201.41C606.966 197.743 599.633 192.767 593.871 186.481C588.109 180.021 583.831 172.513 581.037 163.957C578.243 155.226 576.846 145.71 576.846 135.408ZM668.778 121.265C668.778 116.9 668.166 112.797 666.944 108.955C665.722 104.939 663.889 101.534 661.444 98.7408C659.174 95.7724 656.293 93.5025 652.801 91.9311C649.483 90.185 645.467 89.3119 640.753 89.3119C635.864 89.3119 631.586 90.2723 627.919 92.193C624.253 93.939 621.11 96.2962 618.49 99.2646C616.046 102.233 614.125 105.638 612.728 109.479C611.332 113.321 610.371 117.249 609.847 121.265H668.778Z" fill="#EB2F96"/>
<path d="M809.5 94.8121C806.881 93.939 803.214 93.066 798.5 92.193C793.96 91.1453 788.634 90.6215 782.523 90.6215C779.031 90.6215 775.277 90.9707 771.261 91.6691C767.419 92.3676 764.713 92.9787 763.141 93.5025V203.244H731.45V72.8115C737.561 70.5416 745.157 68.4463 754.236 66.5256C763.491 64.4303 773.705 63.3827 784.88 63.3827C786.975 63.3827 789.42 63.5573 792.214 63.9065C795.007 64.0811 797.801 64.4303 800.595 64.9541C803.389 65.3034 806.095 65.8272 808.714 66.5256C811.333 67.0494 813.429 67.5732 815 68.0971L809.5 94.8121Z" fill="#EB2F96"/>
<path d="M411.856 279.598C425.159 279.598 437.842 277.127 449.905 272.183C461.968 267.24 472.791 260.761 482.374 252.745L493.704 273.586C482.543 284.942 470.029 293.693 456.162 299.838C442.295 305.983 427.527 309.056 411.856 309.056C396.186 309.056 381.417 305.983 367.55 299.838C353.684 293.693 341.17 284.942 330.009 273.586L341.339 252.745C350.922 260.761 361.745 267.24 373.807 272.183C385.87 277.127 398.553 279.598 411.856 279.598Z" fill="#EB2F96"/>
</svg>
