<svg width="254" height="254" viewBox="0 0 254 254" fill="none" xmlns="http://www.w3.org/2000/svg">
<rect width="254" height="254" rx="30" fill="#D32D79"/>
<path d="M134.11 124.576H208V196.923H180.768L178.909 178.184C172.898 185.021 165.339 190.366 156.231 194.22C147.184 198.073 136.682 200 124.723 200C110.038 200 96.716 197.141 84.7573 191.423C72.7986 185.642 63.3494 177.252 56.4096 166.25C49.4699 155.249 46 142.166 46 127C46 111.772 49.5009 98.6888 56.5026 87.7497C63.5043 76.7484 73.1084 68.3887 85.315 62.6705C97.5835 56.8902 111.432 54 126.861 54C141.793 54 154.898 56.3308 166.176 60.9923C177.515 65.6539 186.592 72.1179 193.408 80.3844C200.286 88.6509 204.747 98.1916 206.792 109.006H167.941C166.702 104.345 164.193 100.305 160.413 96.8863C156.695 93.4679 151.955 90.8574 146.193 89.0549C140.492 87.1903 134.079 86.258 126.954 86.258C118.217 86.258 110.688 87.8118 104.368 90.9195C98.0482 93.9651 93.1842 98.5334 89.7763 104.625C86.3683 110.716 84.6644 118.174 84.6644 127C84.6644 135.95 86.4923 143.533 90.148 149.748C93.8657 155.964 99.1325 160.656 105.948 163.826C112.826 166.996 120.974 168.581 130.392 168.581C139.935 168.581 148.299 167.152 155.487 164.292C162.737 161.371 168.313 157.207 172.217 151.799H134.11V124.576Z" fill="white"/>
</svg>
