<svg width="1146" height="426" viewBox="0 0 1146 426" fill="none" xmlns="http://www.w3.org/2000/svg">
<path d="M41.5482 347.304C46.1959 347.304 50.2662 348.151 53.759 349.845C57.2519 351.539 59.9419 353.911 61.8292 356.961C63.7446 359.982 64.7023 363.455 64.7023 367.38C64.7023 371.305 63.7446 374.792 61.8292 377.842C59.9419 380.863 57.2519 383.221 53.759 384.915C50.2662 386.61 46.1959 387.457 41.5482 387.457H19.1546V410.837H8V347.304H41.5482ZM41.1257 377.8C43.6326 377.8 45.8016 377.376 47.6325 376.529C49.4916 375.682 50.9141 374.482 51.8999 372.929C52.8858 371.347 53.3788 369.498 53.3788 367.38C53.3788 365.262 52.8858 363.427 51.8999 361.874C50.9141 360.293 49.4916 359.079 47.6325 358.231C45.8016 357.384 43.6326 356.961 41.1257 356.961H19.1546V377.8H41.1257Z" fill="#646464"/>
<path d="M99.9109 412.023C94.1646 412.023 89.0803 410.978 84.6579 408.888C80.2637 406.771 76.8412 403.806 74.3906 399.994C71.9682 396.182 70.7569 391.805 70.7569 386.864C70.7569 381.922 71.9682 377.545 74.3906 373.733C76.8412 369.921 80.2637 366.971 84.6579 364.881C89.0803 362.763 94.1646 361.705 99.9109 361.705C105.657 361.705 110.727 362.763 115.122 364.881C119.544 366.971 122.966 369.921 125.389 373.733C127.84 377.545 129.065 381.922 129.065 386.864C129.065 391.805 127.84 396.182 125.389 399.994C122.966 403.806 119.544 406.771 115.122 408.888C110.727 410.978 105.657 412.023 99.9109 412.023ZM81.9115 386.864C81.9115 390.224 82.6439 393.146 84.1086 395.631C85.5733 398.116 87.6578 400.036 90.3619 401.392C93.066 402.719 96.249 403.382 99.9109 403.382C103.573 403.382 106.756 402.719 109.46 401.392C112.164 400.036 114.248 398.116 115.713 395.631C117.178 393.146 117.91 390.224 117.91 386.864C117.91 383.532 117.178 380.623 115.713 378.138C114.248 375.654 112.164 373.733 109.46 372.378C106.756 371.023 103.573 370.345 99.9109 370.345C96.249 370.345 93.066 371.023 90.3619 372.378C87.6578 373.733 85.5733 375.654 84.1086 378.138C82.6439 380.623 81.9115 383.532 81.9115 386.864Z" fill="#646464"/>
<path d="M144.464 362.89L158.957 399.867L173.449 362.89H184.435L198.632 400.121L213.166 362.89H224.152L204.885 410.837H193.646L178.858 373.31L163.731 410.837H152.492L133.31 362.89H144.464Z" fill="#646464"/>
<path d="M257.21 412.023C251.66 412.023 246.689 410.964 242.295 408.846C237.929 406.728 234.52 403.763 232.07 399.951C229.619 396.111 228.394 391.72 228.394 386.779C228.394 381.866 229.563 377.517 231.901 373.733C234.238 369.921 237.492 366.971 241.661 364.881C245.83 362.763 250.562 361.705 255.857 361.705C261.125 361.705 265.73 362.905 269.674 365.305C273.646 367.705 276.702 371.107 278.843 375.512C280.983 379.889 282.054 384.972 282.054 390.76H240.055C241.013 394.742 243.168 397.848 246.52 400.079C249.9 402.281 254.167 403.382 259.322 403.382C263.012 403.382 266.759 402.803 270.561 401.646C274.392 400.46 277.772 398.836 280.702 396.775V404.738C277.744 406.997 274.167 408.775 269.97 410.074C265.801 411.373 261.547 412.023 257.21 412.023ZM270.646 382.374C269.857 378.562 268.139 375.611 265.491 373.522C262.871 371.404 259.576 370.345 255.604 370.345C252.844 370.345 250.365 370.839 248.168 371.827C245.999 372.788 244.196 374.171 242.759 375.978C241.323 377.785 240.365 379.917 239.886 382.374H270.646Z" fill="#646464"/>
<path d="M301.909 362.89L304.064 376.105C305.557 371.644 307.852 368.128 310.951 365.559C314.078 362.989 317.908 361.705 322.444 361.705C323.57 361.705 324.725 361.789 325.908 361.959C327.091 362.1 328.133 362.298 329.035 362.552V372.209C327.795 371.87 326.443 371.616 324.979 371.446C323.542 371.277 322.162 371.192 320.838 371.192C317.711 371.192 314.937 371.884 312.514 373.268C310.092 374.651 308.19 376.698 306.81 379.409C305.458 382.092 304.782 385.339 304.782 389.151V410.837H293.797V378.223L290.923 362.89H301.909Z" fill="#646464"/>
<path d="M362.279 412.023C356.73 412.023 351.758 410.964 347.364 408.846C342.998 406.728 339.589 403.763 337.139 399.951C334.688 396.111 333.463 391.72 333.463 386.779C333.463 381.866 334.632 377.517 336.97 373.733C339.308 369.921 342.561 366.971 346.73 364.881C350.899 362.763 355.631 361.705 360.927 361.705C366.194 361.705 370.8 362.905 374.743 365.305C378.715 367.705 381.771 371.107 383.912 375.512C386.053 379.889 387.123 384.972 387.123 390.76H345.124C346.082 394.742 348.237 397.848 351.589 400.079C354.969 402.281 359.237 403.382 364.391 403.382C368.081 403.382 371.828 402.803 375.63 401.646C379.461 400.46 382.841 398.836 385.771 396.775V404.738C382.813 406.997 379.236 408.775 375.039 410.074C370.87 411.373 366.617 412.023 362.279 412.023ZM375.715 382.374C374.926 378.562 373.208 375.611 370.56 373.522C367.94 371.404 364.645 370.345 360.673 370.345C357.913 370.345 355.434 370.839 353.237 371.827C351.068 372.788 349.265 374.171 347.828 375.978C346.392 377.785 345.434 379.917 344.955 382.374H375.715Z" fill="#646464"/>
<path d="M441.836 398.638C439.357 402.874 436.203 406.164 432.372 408.507C428.541 410.851 424.301 412.023 419.654 412.023C415.034 412.023 410.908 410.978 407.274 408.888C403.64 406.771 400.809 403.806 398.781 399.994C396.753 396.182 395.739 391.805 395.739 386.864C395.739 381.922 396.753 377.545 398.781 373.733C400.809 369.921 403.64 366.971 407.274 364.881C410.908 362.763 415.034 361.705 419.654 361.705C424.33 361.705 428.569 362.876 432.372 365.22C436.203 367.535 439.357 370.811 441.836 375.046L444.836 345.61H456.16L451.85 386.186L454.3 410.837H443.061L441.836 398.638ZM406.894 386.864C406.894 390.026 407.541 392.85 408.837 395.335C410.161 397.82 411.992 399.754 414.33 401.137C416.668 402.521 419.316 403.213 422.273 403.213C425.231 403.213 428.006 402.535 430.597 401.18C433.217 399.796 435.526 397.876 437.526 395.419C439.555 392.963 441.174 390.111 442.385 386.864C441.174 383.645 439.555 380.807 437.526 378.35C435.526 375.894 433.217 373.973 430.597 372.59C428.006 371.206 425.231 370.514 422.273 370.514C419.316 370.514 416.668 371.22 414.33 372.632C411.992 374.016 410.161 375.95 408.837 378.435C407.541 380.892 406.894 383.701 406.894 386.864Z" fill="#646464"/>
<path d="M502.445 345.61V375.089C504.924 370.853 508.079 367.564 511.91 365.22C515.741 362.876 519.994 361.705 524.67 361.705C529.29 361.705 533.416 362.763 537.05 364.881C540.684 366.971 543.515 369.921 545.543 373.733C547.571 377.545 548.585 381.922 548.585 386.864C548.585 391.805 547.571 396.182 545.543 399.994C543.515 403.806 540.684 406.771 537.05 408.888C533.416 410.978 529.29 412.023 524.67 412.023C519.994 412.023 515.741 410.837 511.91 408.465C508.079 406.093 504.924 402.775 502.445 398.511V410.837H491.46V345.61H502.445ZM501.938 386.864C503.15 390.111 504.755 392.963 506.755 395.419C508.783 397.876 511.093 399.796 513.684 401.18C516.304 402.535 519.093 403.213 522.05 403.213C525.008 403.213 527.656 402.521 529.994 401.137C532.332 399.754 534.149 397.82 535.444 395.335C536.768 392.85 537.43 390.026 537.43 386.864C537.43 383.701 536.768 380.892 535.444 378.435C534.149 375.95 532.332 374.016 529.994 372.632C527.656 371.22 525.008 370.514 522.05 370.514C519.093 370.514 516.304 371.206 513.684 372.59C511.093 373.973 508.783 375.894 506.755 378.35C504.755 380.807 503.15 383.645 501.938 386.864Z" fill="#646464"/>
<path d="M569.021 426C563.866 426 559.19 424.673 554.993 422.019V413.632C557.19 415.016 559.261 416.004 561.204 416.597C563.148 417.218 565.303 417.529 567.669 417.529C570.091 417.529 572.19 416.978 573.964 415.877C575.739 414.776 577.19 412.983 578.316 410.498L578.866 409.312H574.514L552.543 362.89H564.627L582.161 402.027L599.865 362.89H611.527L586.767 414.225C583.02 422.075 577.105 426 569.021 426Z" fill="#646464"/>
<path d="M650.588 390.167C650.926 392.709 651.982 394.939 653.757 396.86C655.531 398.78 657.884 400.262 660.813 401.307C663.771 402.352 667.151 402.874 670.953 402.874C674.7 402.874 677.967 402.479 680.756 401.688C683.545 400.869 685.685 399.711 687.178 398.215C688.699 396.718 689.46 394.968 689.46 392.963C689.46 391.269 689.037 389.885 688.192 388.812C687.376 387.739 686.009 386.878 684.094 386.228C682.207 385.551 679.573 385 676.193 384.576L662.503 382.798C657.348 382.12 653.165 381.061 649.954 379.621C646.771 378.181 644.419 376.289 642.898 373.945C641.377 371.573 640.616 368.651 640.616 365.178C640.616 361.337 641.785 357.991 644.123 355.139C646.461 352.259 649.771 350.043 654.053 348.49C658.362 346.908 663.376 346.118 669.094 346.118C674.728 346.118 679.756 346.965 684.178 348.659C688.629 350.353 692.15 352.739 694.742 355.817C697.333 358.867 698.755 362.382 699.009 366.364H687.685C687.404 364.133 686.46 362.185 684.854 360.519C683.249 358.853 681.066 357.568 678.305 356.664C675.573 355.732 672.418 355.267 668.841 355.267C665.404 355.267 662.39 355.648 659.799 356.41C657.236 357.173 655.25 358.274 653.841 359.714C652.461 361.154 651.771 362.834 651.771 364.754C651.771 366.307 652.165 367.592 652.954 368.608C653.743 369.597 655.024 370.43 656.799 371.107C658.602 371.757 661.038 372.293 664.109 372.717L677.967 374.665C683.742 375.456 688.249 376.529 691.488 377.884C694.756 379.211 697.093 380.976 698.502 383.179C699.91 385.381 700.615 388.247 700.615 391.777C700.615 395.815 699.375 399.373 696.896 402.45C694.418 405.5 690.925 407.858 686.418 409.524C681.911 411.19 676.7 412.023 670.784 412.023C664.757 412.023 659.39 411.119 654.686 409.312C650.011 407.477 646.32 404.907 643.616 401.603C640.94 398.3 639.49 394.488 639.264 390.167H650.588Z" fill="#646464"/>
<path d="M731.859 412.023C727.493 412.023 723.76 411.133 720.662 409.354C717.563 407.547 715.197 404.949 713.563 401.561C711.958 398.173 711.155 394.121 711.155 389.405V362.89H722.141V387.711C722.141 392.652 723.267 396.422 725.521 399.02C727.802 401.589 731.098 402.874 735.408 402.874C738.45 402.874 741.098 402.196 743.351 400.841C745.633 399.457 747.379 397.523 748.59 395.038C749.83 392.525 750.45 389.603 750.45 386.271V362.89H761.435V395.25L764.224 410.837H753.238L751.379 399.401C749.492 403.41 746.844 406.517 743.436 408.719C740.027 410.921 736.168 412.023 731.859 412.023Z" fill="#646464"/>
<path d="M786.822 345.61V375.089C789.301 370.853 792.456 367.564 796.286 365.22C800.117 362.876 804.371 361.705 809.047 361.705C813.666 361.705 817.793 362.763 821.426 364.881C825.06 366.971 827.891 369.921 829.919 373.733C831.947 377.545 832.961 381.922 832.961 386.864C832.961 391.805 831.947 396.182 829.919 399.994C827.891 403.806 825.06 406.771 821.426 408.888C817.793 410.978 813.666 412.023 809.047 412.023C804.371 412.023 800.117 410.837 796.286 408.465C792.456 406.093 789.301 402.775 786.822 398.511V410.837H775.836V345.61H786.822ZM786.315 386.864C787.526 390.111 789.132 392.963 791.132 395.419C793.16 397.876 795.47 399.796 798.061 401.18C800.681 402.535 803.469 403.213 806.427 403.213C809.385 403.213 812.032 402.521 814.37 401.137C816.708 399.754 818.525 397.82 819.821 395.335C821.145 392.85 821.807 390.026 821.807 386.864C821.807 383.701 821.145 380.892 819.821 378.435C818.525 375.95 816.708 374.016 814.37 372.632C812.032 371.22 809.385 370.514 806.427 370.514C803.469 370.514 800.681 371.206 798.061 372.59C795.47 373.973 793.16 375.894 791.132 378.35C789.132 380.807 787.526 383.645 786.315 386.864Z" fill="#646464"/>
<path d="M893.735 396.267C893.735 399.514 892.82 402.323 890.989 404.695C889.158 407.039 886.397 408.846 882.707 410.117C879.045 411.387 874.496 412.023 869.06 412.023C863.426 412.023 858.511 411.303 854.314 409.863C850.145 408.423 846.906 406.404 844.596 403.806C842.314 401.18 841.089 398.13 840.92 394.657H852.074C852.412 396.492 853.328 398.088 854.821 399.443C856.314 400.799 858.286 401.857 860.736 402.62C863.187 403.354 865.99 403.721 869.144 403.721C873.736 403.721 877.172 403.17 879.454 402.069C881.764 400.968 882.919 399.288 882.919 397.029C882.919 395.984 882.581 395.123 881.905 394.445C881.229 393.768 880.088 393.217 878.482 392.793C876.905 392.37 874.693 392.031 871.848 391.777L862.469 390.93C855.314 390.309 850.173 388.727 847.047 386.186C843.92 383.645 842.357 380.482 842.357 376.698C842.357 373.508 843.357 370.797 845.356 368.566C847.356 366.307 850.159 364.599 853.765 363.441C857.398 362.283 861.623 361.705 866.44 361.705C871.341 361.705 875.75 362.396 879.665 363.78C883.58 365.164 886.693 367.098 889.003 369.583C891.313 372.039 892.608 374.863 892.89 378.054H881.735C881.482 376.67 880.778 375.371 879.623 374.157C878.496 372.943 876.778 371.955 874.468 371.192C872.187 370.402 869.313 370.006 865.849 370.006C861.877 370.006 858.779 370.529 856.553 371.573C854.356 372.618 853.258 374.101 853.258 376.021C853.258 377.348 853.976 378.435 855.412 379.282C856.849 380.129 859.314 380.708 862.807 381.019L874.891 382.12C881.735 382.769 886.58 384.294 889.425 386.694C892.298 389.066 893.735 392.257 893.735 396.267Z" fill="#646464"/>
<path d="M931.205 412.023C925.458 412.023 920.374 410.978 915.952 408.888C911.558 406.771 908.135 403.806 905.684 399.994C903.262 396.182 902.051 391.805 902.051 386.864C902.051 381.922 903.262 377.545 905.684 373.733C908.135 369.921 911.558 366.971 915.952 364.881C920.374 362.763 925.458 361.705 931.205 361.705C936.951 361.705 942.021 362.763 946.416 364.881C950.838 366.971 954.26 369.921 956.683 373.733C959.133 377.545 960.359 381.922 960.359 386.864C960.359 391.805 959.133 396.182 956.683 399.994C954.26 403.806 950.838 406.771 946.416 408.888C942.021 410.978 936.951 412.023 931.205 412.023ZM913.205 386.864C913.205 390.224 913.938 393.146 915.402 395.631C916.867 398.116 918.952 400.036 921.656 401.392C924.36 402.719 927.543 403.382 931.205 403.382C934.867 403.382 938.05 402.719 940.754 401.392C943.458 400.036 945.542 398.116 947.007 395.631C948.472 393.146 949.204 390.224 949.204 386.864C949.204 383.532 948.472 380.623 947.007 378.138C945.542 375.654 943.458 373.733 940.754 372.378C938.05 371.023 934.867 370.345 931.205 370.345C927.543 370.345 924.36 371.023 921.656 372.378C918.952 373.733 916.867 375.654 915.402 378.138C913.938 380.623 913.205 383.532 913.205 386.864Z" fill="#646464"/>
<path d="M1024.22 391.946C1023.65 395.871 1022.1 399.358 1019.57 402.408C1017.06 405.458 1013.81 407.83 1009.81 409.524C1005.84 411.19 1001.46 412.023 996.668 412.023C991.203 412.023 986.344 410.964 982.091 408.846C977.866 406.728 974.57 403.763 972.204 399.951C969.866 396.139 968.697 391.777 968.697 386.864C968.697 381.95 969.866 377.588 972.204 373.776C974.57 369.964 977.866 366.999 982.091 364.881C986.344 362.763 991.203 361.705 996.668 361.705C1001.46 361.705 1005.84 362.552 1009.81 364.246C1013.81 365.94 1017.06 368.312 1019.57 371.362C1022.1 374.411 1023.65 377.913 1024.22 381.866H1013.15C1012.61 379.494 1011.58 377.447 1010.06 375.724C1008.54 373.973 1006.63 372.646 1004.32 371.743C1002.03 370.811 999.485 370.345 996.668 370.345C993.288 370.345 990.33 371.009 987.795 372.336C985.26 373.663 983.302 375.569 981.922 378.054C980.542 380.539 979.851 383.475 979.851 386.864C979.851 390.252 980.542 393.189 981.922 395.674C983.302 398.158 985.26 400.064 987.795 401.392C990.33 402.719 993.288 403.382 996.668 403.382C999.485 403.382 1002.05 402.916 1004.36 401.985C1006.67 401.053 1008.58 399.726 1010.1 398.003C1011.63 396.252 1012.64 394.233 1013.15 391.946H1024.22Z" fill="#646464"/>
<path d="M1040.16 363.568L1045.65 362.552V410.837H1034.66V362.552L1040.16 363.568ZM1032.97 350.269C1032.97 348.405 1033.64 346.894 1034.96 345.737C1036.31 344.579 1038.04 344 1040.16 344C1042.27 344 1043.99 344.579 1045.31 345.737C1046.66 346.894 1047.34 348.405 1047.34 350.269C1047.34 352.132 1046.66 353.643 1045.31 354.801C1043.99 355.958 1042.27 356.537 1040.16 356.537C1038.04 356.537 1036.31 355.958 1034.96 354.801C1033.64 353.643 1032.97 352.132 1032.97 350.269Z" fill="#646464"/>
<path d="M1102.78 398.935C1100.3 403.058 1097.16 406.277 1093.36 408.592C1089.56 410.879 1085.36 412.023 1080.77 412.023C1076.15 412.023 1072.02 410.978 1068.39 408.888C1064.75 406.771 1061.92 403.806 1059.89 399.994C1057.87 396.182 1056.85 391.805 1056.85 386.864C1056.85 381.922 1057.87 377.545 1059.89 373.733C1061.92 369.921 1064.75 366.971 1068.39 364.881C1072.02 362.763 1076.15 361.705 1080.77 361.705C1085.39 361.705 1089.58 362.848 1093.36 365.135C1097.16 367.423 1100.3 370.627 1102.78 374.75L1104.01 362.89H1115.33L1112.79 386.864L1115.33 410.837H1104.01L1102.78 398.935ZM1068.01 386.864C1068.01 390.026 1068.66 392.85 1069.95 395.335C1071.27 397.82 1073.11 399.754 1075.44 401.137C1077.78 402.521 1080.43 403.213 1083.39 403.213C1086.34 403.213 1089.12 402.535 1091.71 401.18C1094.33 399.796 1096.64 397.876 1098.64 395.419C1100.67 392.963 1102.29 390.111 1103.5 386.864C1102.29 383.645 1100.67 380.807 1098.64 378.35C1096.64 375.894 1094.33 373.973 1091.71 372.59C1089.12 371.206 1086.34 370.514 1083.39 370.514C1080.43 370.514 1077.78 371.22 1075.44 372.632C1073.11 374.016 1071.27 375.95 1069.95 378.435C1068.66 380.892 1068.01 383.701 1068.01 386.864Z" fill="#646464"/>
<path d="M1139 345.61V410.837H1128.01V345.61H1139Z" fill="#646464"/>
<path d="M142.2 113.55H261.45V229.95H217.5L214.5 199.8C204.8 210.8 192.6 219.4 177.9 225.6C163.3 231.8 146.35 234.9 127.05 234.9C103.35 234.9 81.85 230.3 62.55 221.1C43.25 211.8 28 198.3 16.8 180.6C5.6 162.9 0 141.85 0 117.45C0 92.95 5.65 71.9 16.95 54.3C28.25 36.6 43.75 23.15 63.45 13.95C83.25 4.65001 105.6 0 130.5 0C154.6 0 175.75 3.75 193.95 11.25C212.25 18.75 226.9 29.15 237.9 42.45C249 55.75 256.2 71.1 259.5 88.5H196.8C194.8 81 190.75 74.5 184.65 69C178.65 63.5 171 59.3 161.7 56.4C152.5 53.4 142.15 51.9 130.65 51.9C116.55 51.9 104.4 54.4 94.2 59.4C84 64.3 76.15 71.65 70.65 81.45C65.15 91.25 62.4 103.25 62.4 117.45C62.4 131.85 65.35 144.05 71.25 154.05C77.25 164.05 85.75 171.6 96.75 176.7C107.85 181.8 121 184.35 136.2 184.35C151.6 184.35 165.1 182.05 176.7 177.45C188.4 172.75 197.4 166.05 203.7 157.35H142.2V113.55Z" fill="#D32D79"/>
<path d="M452.688 195.3C444.388 207.9 434.038 217.65 421.638 224.55C409.238 231.45 395.388 234.9 380.088 234.9C363.488 234.9 348.738 231.15 335.838 223.65C323.038 216.05 313.088 205.4 305.988 191.7C298.888 177.9 295.338 162.1 295.338 144.3C295.338 126.4 298.888 110.6 305.988 96.9C313.088 83.1 323.038 72.45 335.838 64.95C348.738 57.35 363.488 53.55 380.088 53.55C395.288 53.55 409.138 56.95 421.638 63.75C434.138 70.55 444.538 80.2 452.838 92.7L457.188 58.5H520.788L509.988 144.15L520.788 229.95H457.188L452.688 195.3ZM357.288 144.3C357.288 152.7 359.038 160.2 362.538 166.8C366.038 173.4 370.888 178.6 377.088 182.4C383.388 186.1 390.538 187.95 398.538 187.95C406.638 187.95 414.388 186.1 421.788 182.4C429.288 178.6 435.838 173.4 441.438 166.8C447.138 160.2 451.388 152.7 454.188 144.3C451.388 135.9 447.138 128.4 441.438 121.8C435.838 115.1 429.288 109.9 421.788 106.2C414.388 102.4 406.638 100.5 398.538 100.5C390.538 100.5 383.388 102.4 377.088 106.2C370.888 109.9 366.038 115.1 362.538 121.8C359.038 128.4 357.288 135.9 357.288 144.3Z" fill="#D32D79"/>
<path d="M553.84 187.35L661.54 102.6H554.74V58.5H738.34V101.1L630.79 185.85H738.94V229.95H553.84V187.35Z" fill="#D32D79"/>
<path d="M873.082 234.9C852.382 234.9 833.832 231.1 817.432 223.5C801.032 215.8 788.182 205.05 778.882 191.25C769.582 177.45 764.932 161.6 764.932 143.7C764.932 126.1 769.382 110.45 778.282 96.75C787.282 83.05 799.682 72.45 815.482 64.95C831.282 57.35 849.082 53.55 868.882 53.55C888.982 53.55 906.382 58 921.082 66.9C935.782 75.7 947.032 88.25 954.832 104.55C962.732 120.75 966.682 139.8 966.682 161.7H831.382C835.582 170.8 842.682 177.8 852.682 182.7C862.682 187.5 875.282 189.9 890.482 189.9C903.082 189.9 915.632 188.25 928.132 184.95C940.632 181.65 952.032 176.95 962.332 170.85V209.85C950.332 217.95 936.782 224.15 921.682 228.45C906.582 232.75 890.382 234.9 873.082 234.9ZM909.682 124.8C906.882 115.8 902.082 108.9 895.282 104.1C888.582 99.2 880.232 96.75 870.232 96.75C859.732 96.75 850.832 99.3 843.532 104.4C836.332 109.4 831.382 116.2 828.682 124.8H909.682Z" fill="#D32D79"/>
<path d="M1055.62 58.5L1063.12 103.65C1074.72 70.25 1095.27 53.55 1124.77 53.55C1131.37 53.55 1138.42 54.35 1145.92 55.95V108.3C1134.72 106 1124.32 104.85 1114.72 104.85C1100.12 104.85 1088.32 109.25 1079.32 118.05C1070.32 126.85 1065.82 140.65 1065.82 159.45V229.95H1004.47V116.25L993.216 58.5H1055.62Z" fill="#D32D79"/>
</svg>
