<svg width="1146" height="235" viewBox="0 0 1146 235" fill="none" xmlns="http://www.w3.org/2000/svg">
<path d="M142.2 113.55H261.45V229.95H217.5L214.5 199.8C204.8 210.8 192.6 219.4 177.9 225.6C163.3 231.8 146.35 234.9 127.05 234.9C103.35 234.9 81.85 230.3 62.55 221.1C43.25 211.8 28 198.3 16.8 180.6C5.6 162.9 0 141.85 0 117.45C0 92.95 5.65 71.9 16.95 54.3C28.25 36.6 43.75 23.15 63.45 13.95C83.25 4.65001 105.6 0 130.5 0C154.6 0 175.75 3.75 193.95 11.25C212.25 18.75 226.9 29.15 237.9 42.45C249 55.75 256.2 71.1 259.5 88.5H196.8C194.8 81 190.75 74.5 184.65 69C178.65 63.5 171 59.3 161.7 56.4C152.5 53.4 142.15 51.9 130.65 51.9C116.55 51.9 104.4 54.4 94.2 59.4C84 64.3 76.15 71.65 70.65 81.45C65.15 91.25 62.4 103.25 62.4 117.45C62.4 131.85 65.35 144.05 71.25 154.05C77.25 164.05 85.75 171.6 96.75 176.7C107.85 181.8 121 184.35 136.2 184.35C151.6 184.35 165.1 182.05 176.7 177.45C188.4 172.75 197.4 166.05 203.7 157.35H142.2V113.55Z" fill="#D32D79"/>
<path d="M452.688 195.3C444.388 207.9 434.038 217.65 421.638 224.55C409.238 231.45 395.388 234.9 380.088 234.9C363.488 234.9 348.738 231.15 335.838 223.65C323.038 216.05 313.088 205.4 305.988 191.7C298.888 177.9 295.338 162.1 295.338 144.3C295.338 126.4 298.888 110.6 305.988 96.9C313.088 83.1 323.038 72.45 335.838 64.95C348.738 57.35 363.488 53.55 380.088 53.55C395.288 53.55 409.138 56.95 421.638 63.75C434.138 70.55 444.538 80.2 452.838 92.7L457.188 58.5H520.788L509.988 144.15L520.788 229.95H457.188L452.688 195.3ZM357.288 144.3C357.288 152.7 359.038 160.2 362.538 166.8C366.038 173.4 370.888 178.6 377.088 182.4C383.388 186.1 390.538 187.95 398.538 187.95C406.638 187.95 414.388 186.1 421.788 182.4C429.288 178.6 435.838 173.4 441.438 166.8C447.138 160.2 451.388 152.7 454.188 144.3C451.388 135.9 447.138 128.4 441.438 121.8C435.838 115.1 429.288 109.9 421.788 106.2C414.388 102.4 406.638 100.5 398.538 100.5C390.538 100.5 383.388 102.4 377.088 106.2C370.888 109.9 366.038 115.1 362.538 121.8C359.038 128.4 357.288 135.9 357.288 144.3Z" fill="#D32D79"/>
<path d="M553.84 187.35L661.54 102.6H554.74V58.5H738.34V101.1L630.79 185.85H738.94V229.95H553.84V187.35Z" fill="#D32D79"/>
<path d="M873.082 234.9C852.382 234.9 833.832 231.1 817.432 223.5C801.032 215.8 788.182 205.05 778.882 191.25C769.582 177.45 764.932 161.6 764.932 143.7C764.932 126.1 769.382 110.45 778.282 96.75C787.282 83.05 799.682 72.45 815.482 64.95C831.282 57.35 849.082 53.55 868.882 53.55C888.982 53.55 906.382 58 921.082 66.9C935.782 75.7 947.032 88.25 954.832 104.55C962.732 120.75 966.682 139.8 966.682 161.7H831.382C835.582 170.8 842.682 177.8 852.682 182.7C862.682 187.5 875.282 189.9 890.482 189.9C903.082 189.9 915.632 188.25 928.132 184.95C940.632 181.65 952.032 176.95 962.332 170.85V209.85C950.332 217.95 936.782 224.15 921.682 228.45C906.582 232.75 890.382 234.9 873.082 234.9ZM909.682 124.8C906.882 115.8 902.082 108.9 895.282 104.1C888.582 99.2 880.232 96.75 870.232 96.75C859.732 96.75 850.832 99.3 843.532 104.4C836.332 109.4 831.382 116.2 828.682 124.8H909.682Z" fill="#D32D79"/>
<path d="M1055.62 58.5L1063.12 103.65C1074.72 70.25 1095.27 53.55 1124.77 53.55C1131.37 53.55 1138.42 54.35 1145.92 55.95V108.3C1134.72 106 1124.32 104.85 1114.72 104.85C1100.12 104.85 1088.32 109.25 1079.32 118.05C1070.32 126.85 1065.82 140.65 1065.82 159.45V229.95H1004.47V116.25L993.216 58.5H1055.62Z" fill="#D32D79"/>
</svg>
