<svg width="14" height="22" viewBox="0 0 14 22" fill="none" xmlns="http://www.w3.org/2000/svg">
<path d="M11.6102 9.82627L5.95974 17.9383L6.53578 12.0365C6.58151 11.568 6.22053 11.1556 5.75088 11.1556H2.38231L7.24578 4.10144L6.75572 8.94247C6.70819 9.41193 7.06951 9.82627 7.54033 9.82627H11.6102ZM8.92841 1.73571C9.01064 0.923382 7.97018 0.508453 7.49786 1.19353L0.493861 11.3524C0.130697 11.8791 0.495966 12.6142 1.1398 12.6142H5.03678L4.28982 20.2672C4.21085 21.0764 5.24505 21.4893 5.71847 20.8097L13.5038 9.63265C13.8704 9.10627 13.5056 8.36764 12.86 8.36764H8.25705L8.92841 1.73571Z" fill="#8C8C8C" stroke="#8C8C8C" stroke-width="0.3"/>
</svg>
