<svg width="30" height="30" viewBox="0 0 30 30" fill="none" xmlns="http://www.w3.org/2000/svg">
<circle cx="15" cy="15" r="15" fill="#D34C45"/>
<path d="M19.7324 9.54584L15.2375 13.9824L10.7425 9.54574C10.4324 9.23968 9.92887 9.23968 9.61868 9.54584C9.30859 9.8519 9.30859 10.3489 9.61868 10.6549L14.1137 15.0916L9.61868 19.5282C9.30859 19.8342 9.30859 20.3312 9.61868 20.6373C9.92887 20.9434 10.4324 20.9434 10.7425 20.6374L15.2375 16.2007L19.7324 20.6373C20.0425 20.9434 20.5461 20.9434 20.8561 20.6374C21.1663 20.3312 21.1663 19.8342 20.8561 19.5281L16.3612 15.0916L20.8561 10.655C21.1663 10.3489 21.1663 9.8519 20.8561 9.54574C20.5461 9.23968 20.0425 9.23968 19.7324 9.54584Z" fill="white"/>
</svg>
