<svg width="30" height="30" viewBox="0 0 30 30" fill="none" xmlns="http://www.w3.org/2000/svg">
<circle cx="15" cy="15" r="15" fill="#4D83D3"/>
<path d="M13.4102 18.4023C13.4102 17.4499 13.5283 16.6908 13.7646 16.125C14.001 15.5592 14.4665 14.9398 15.1611 14.2666C15.863 13.5863 16.307 13.1029 16.4932 12.8164C16.7796 12.3796 16.9229 11.9069 16.9229 11.3984C16.9229 10.7253 16.7546 10.2132 16.418 9.8623C16.0885 9.50423 15.6016 9.3252 14.957 9.3252C14.3411 9.3252 13.8434 9.50065 13.4639 9.85156C13.0915 10.1953 12.9053 10.6644 12.9053 11.2588H10.2949C10.3092 9.99121 10.7389 8.98861 11.584 8.25098C12.4362 7.51335 13.5605 7.14453 14.957 7.14453C16.3965 7.14453 17.5173 7.50977 18.3193 8.24023C19.1286 8.9707 19.5332 9.99121 19.5332 11.3018C19.5332 12.4691 18.9889 13.6185 17.9004 14.75L16.5791 16.0498C16.1064 16.5869 15.863 17.3711 15.8486 18.4023H13.4102ZM13.2275 21.7432C13.2275 21.3206 13.36 20.9805 13.625 20.7227C13.89 20.4577 14.248 20.3252 14.6992 20.3252C15.1576 20.3252 15.5192 20.4613 15.7842 20.7334C16.0492 20.9984 16.1816 21.335 16.1816 21.7432C16.1816 22.137 16.0527 22.4665 15.7949 22.7314C15.5371 22.9964 15.1719 23.1289 14.6992 23.1289C14.2266 23.1289 13.8613 22.9964 13.6035 22.7314C13.3529 22.4665 13.2275 22.137 13.2275 21.7432Z" fill="white"/>
</svg>
