<svg width="27" height="20" viewBox="0 0 27 20" fill="none" xmlns="http://www.w3.org/2000/svg">
<path d="M26.4989 6.76859L24.9621 14.4131C24.0916 18.7445 21.7605 19.1098 18.8148 19.1356C17.5086 19.1356 16.9449 19.0839 15.9972 18.7445C13.8712 17.8836 13.1034 19.8403 10.2603 19.1356C9.10747 18.849 7.69863 17.9882 6.3924 19.266C7.39083 18.0657 8.82614 18.2219 10.0805 18.4051C12.6422 18.7704 13.2314 15.9 10.7723 16.1608C9.00487 16.3428 8.69706 18.021 6.2898 16.8207C4.83022 16.0902 4.44989 14.8067 2.60589 15.1093C1.81156 15.2397 1.12751 15.8141 0 15.1881C1.22359 15.5595 1.48519 15.129 2.40749 14.8154C4.27748 14.1895 4.62501 14.836 5.75252 15.4631C7.72511 16.5589 8.39036 15.7685 8.72354 15.038C9.26192 13.8377 8.39036 12.5071 6.2898 12.924C5.52195 13.0802 3.16543 13.8377 2.14052 12.5846C3.19081 13.6017 5.06079 12.7936 5.95662 12.4801C8.44111 11.6192 9.18359 12.3756 10.7723 13.3927C13.1034 14.8795 14.1272 13.523 14.435 12.2452C14.8443 10.5493 14.435 10.4189 13.1034 10.5234C12.2065 10.6021 11.336 10.4976 10.3111 9.50634C8.87689 8.09701 7.51881 8.82752 6.85355 9.42767C7.75048 8.51396 8.87689 7.96664 10.8241 8.95789C14.307 10.7325 15.9983 5.56605 13.1034 5.40984C10.5163 5.27947 9.95255 6.61013 7.2121 7.21027C6.13645 7.44516 4.86933 7.46205 3.4616 6.15724C5.33159 7.61827 8.75657 6.79854 8.85917 4.84076C8.96177 2.72677 6.28574 1.6309 2.21095 4.44582C4.44896 2.35496 5.43632 2.01033 7.34522 2.14198C9.10886 2.34718 9.87642 3.32169 11.5158 3.71392C13.5138 4.1837 16.177 3.6094 16.69 2.40911C17.1512 1.33919 15.8196 0.713194 13.7697 1.57408C12.2329 2.22592 11.2599 2.40911 9.38989 1.33919C11.7464 2.53948 12.95 1.23467 14.2309 0.530004C16.7926 -0.879327 18.2268 0.973931 20.7621 0.921109C21.4284 0.869411 22.1455 0.869412 22.888 0.869412H25.9109L25.1684 4.49613H23.6316L24.0409 2.43496C20.9673 2.43496 20.0968 2.85192 19.5331 5.61775L18.7652 9.32314L17.8175 14.0198C17.1512 17.333 17.3817 17.5678 18.816 17.5678C19.9688 17.5678 20.7113 17.3858 21.3258 14.385L22.5548 8.33189H21.0952V6.76635H26.5L26.4989 6.76859Z" fill="white"/>
</svg>
