<svg width="85" height="102" viewBox="0 0 85 102" fill="none" xmlns="http://www.w3.org/2000/svg">
<path opacity="0.15" d="M-13.8869 27.9446L-14.3345 28.2344L-14.3434 28.7675L-14.8073 56.7173L-14.8384 58.5924L-13.264 57.5734L-0.532604 49.3327L-0.0849704 49.0429L-0.0761184 48.5098L0.387756 20.56L0.418877 18.6849L-1.15549 19.7039L-13.8869 27.9446ZM10.6315 12.0745L10.1838 12.3643L10.175 12.8974L9.71112 40.8472L9.68 42.7223L11.2544 41.7033L41.9659 21.8245L43.5403 20.8054L41.8168 20.066L16.1278 9.04435L15.6377 8.8341L15.1901 9.12385L10.6315 12.0745ZM26.9771 1.49445L25.4027 2.51349L27.1262 3.25293L52.8152 14.2746L53.3053 14.4848L53.7529 14.1951L66.4843 5.95436L68.0587 4.93532L66.3352 4.19588L40.6461 -6.82576L40.1561 -7.036L39.7085 -6.74626L26.9771 1.49445ZM71.9326 15.8269L72.1968 13.6991L70.3969 14.8642L59.5056 21.9138L58.9665 22.2628L59.0595 22.8982L64.4787 59.9216L66.4605 59.9L71.9326 15.8269ZM55.7473 78.4526L57.5906 79.6268L57.2741 77.4644L50.2655 29.5816L50.0399 28.0407L48.7326 28.8869L14.9267 50.7686L13.6194 51.6148L14.9328 52.4515L55.7473 78.4526ZM5.23443 57.7377L4.69284 57.3927L4.15376 57.7417L-6.73752 64.7913L-8.53746 65.9564L-6.48809 66.5866L35.9614 79.6413L36.7927 77.8421L5.23443 57.7377ZM-23.9075 22.9884L39.29 -17.9178L83.4927 1.04697L71.1376 100.556L-24.7057 71.081L-23.9075 22.9884Z" fill="white" stroke="white" stroke-width="2"/>
</svg>
