<svg width="55" height="73" viewBox="0 0 55 73" fill="none" xmlns="http://www.w3.org/2000/svg">
<path opacity="0.1" d="M16.1694 13.6636L15.6449 13.7594L15.4321 14.2483L8.98165 29.0743L8.23345 30.7939L10.0783 30.457L18.7074 28.8807L19.2319 28.7849L19.4447 28.296L25.8952 13.47L26.6434 11.7503L24.7985 12.0873L16.1694 13.6636ZM32.7875 10.628L32.2629 10.7238L32.0502 11.2128L25.5997 26.0387L24.8515 27.7584L26.6963 27.4214L47.512 23.6191L49.3568 23.2821L48.049 21.938L36.7736 10.35L36.4017 9.96783L35.8772 10.0636L32.7875 10.628ZM43.8661 8.60434L42.0213 8.94133L43.3291 10.2854L54.6045 21.8735L54.9764 22.2557L55.5009 22.1598L64.13 20.5836L65.9749 20.2466L64.667 18.9025L53.3916 7.31446L53.0198 6.9323L52.4952 7.02811L43.8661 8.60434ZM65.1399 26.8597L66.2002 24.9962L64.091 25.3815L56.7092 26.7299L56.0774 26.8453L55.9195 27.4677L50.5977 48.4458L52.4361 49.1863L65.1399 26.8597ZM41.8846 56.7512L43.1362 58.5428L43.6736 56.4244L50.5565 29.2933L50.9394 27.7838L49.4075 28.0636L26.4945 32.249L24.9626 32.5289L25.8545 33.8054L41.8846 56.7512ZM20.1923 33.9938L19.8246 33.4674L19.1929 33.5828L11.811 34.9312L9.70178 35.3165L11.3525 36.6848L31.129 53.0783L32.587 51.7357L20.1923 33.9938ZM12.2896 9.58151L54.6813 1.83805L73.7049 21.3892L45.4274 71.0861L1.4065 34.5955L12.2896 9.58151Z" fill="white" stroke="white" stroke-width="2"/>
</svg>
